<svg width="35" height="26" viewBox="0 0 35 26" fill="none" xmlns="http://www.w3.org/2000/svg">
<path d="M0.901447 10.8754C2.24598 11.168 3.61043 11.3597 4.98346 11.4489C7.6805 11.4489 10.3879 11.2716 13.0746 11.011C15.7612 10.7503 18.2812 10.2811 20.8845 9.96828C22.5194 9.75975 24.196 9.79102 25.81 9.45736C28.3405 8.94645 30.9542 8.63365 33.1931 7.16347C33.4621 7.02884 33.7405 6.91385 34.0261 6.81938C33.5159 8.61279 33.1306 10.2394 32.5995 11.8138C31.7224 14.6931 30.3671 17.4037 28.5904 19.832C26.6015 22.3866 24.3626 24.6075 21.0512 25.4417C19.1428 25.902 17.1555 25.9274 15.2361 25.5159C13.3166 25.1045 11.5139 24.2667 9.96101 23.0644C5.78547 20.0847 2.62624 15.8912 0.911855 11.0527C0.890746 10.996 0.887124 10.9342 0.901447 10.8754ZM12.5435 0.907378C10.18 1.42591 7.8501 2.08749 5.5666 2.88847C3.64461 3.47755 1.93397 4.61101 0.641115 6.15206C-0.400215 7.47627 -0.181549 8.66493 1.35962 9.28011C2.3748 9.71592 3.46285 9.95644 4.56692 9.98912C6.90991 9.98912 9.2529 9.81188 11.5959 9.6242C14.3033 9.3948 17.0212 9.11328 19.7287 8.77963C22.1446 8.49463 24.5743 8.14707 27.018 7.73694C29.1281 7.51273 31.157 6.79869 32.9431 5.65158C34.4322 4.6089 34.9321 2.75293 33.0369 1.48086C32.8496 1.35179 32.6509 1.2401 32.4433 1.14719C30.3369 0.35703 28.1007 -0.0285367 25.8517 0.0106713C22.988 -0.0518896 20.114 0.17749 17.9168 0.260905C16.1154 0.379559 14.3217 0.595371 12.5435 0.907378Z" fill="white"/>
</svg>
