<svg width="24" height="25" viewBox="0 0 24 25" fill="none" xmlns="http://www.w3.org/2000/svg">
<path d="M1.95135 13.4905C5.06835 12.7244 8.08461 11.594 10.938 10.1227C13.0207 9.18428 15.1033 8.38141 17.186 7.37001C19.0396 6.45245 20.789 5.33678 22.7571 4.24197C22.9654 6.20221 23.2465 8.26671 23.3923 10.3416C23.4965 11.8744 23.3923 13.4697 23.3923 14.9607C23.3722 17.3069 22.8502 19.6214 21.8616 21.7486C21.0493 23.4899 19.4353 24.0216 17.8004 24.2302C14.489 24.6472 11.844 22.9998 9.29272 21.1021C6.79169 19.1018 4.52454 16.8247 2.53449 14.3143C2.35747 14.1161 2.21169 13.8659 1.95135 13.4905ZM6.33535 10.6545C9.37603 9.38933 12.3924 8.07207 15.3845 6.70268C17.1548 5.87896 18.8625 4.91971 20.5911 3.96044C21.0647 3.69309 21.4392 3.27957 21.6588 2.78158C21.8784 2.2836 21.9313 1.72786 21.8095 1.19732C21.5804 0.394459 20.7682 -0.106017 19.4873 0.019105C18.0824 0.161368 16.6901 0.40882 15.322 0.7594C11.6841 1.63897 8.21536 3.11142 5.05452 5.11782C3.19446 6.16172 1.60954 7.63432 0.431022 9.41366C-0.506174 11.009 0.0248942 11.9369 2.6178 11.9578C3.34673 11.7284 4.83584 11.2592 6.33535 10.6857V10.6545Z" fill="white"/>
</svg>
