<svg width="25" height="25" viewBox="0 0 25 25" fill="none" xmlns="http://www.w3.org/2000/svg">
<path d="M16.2031 0C17.2361 0.18551 18.2407 0.504456 19.1917 0.948844C20.6912 1.88726 20.4413 3.75365 19.4104 5.3281C18.058 7.20992 17.2215 9.41359 16.9841 11.7197C16.903 12.6259 16.4839 13.4681 15.8104 14.0787C15.1369 14.6893 14.2584 15.0235 13.3498 15.0146C10.7049 15.2336 8.02865 15.4421 5.61276 16.7767C4.8561 17.2423 4.03504 17.5936 3.17606 17.8194C1.43704 18.1844 0 16.8601 0 14.8686C0.0352167 13.1318 0.542861 11.4375 1.46828 9.96803C3.95706 5.71389 7.76831 3.04463 12.1835 1.15738C13.4932 0.673429 14.8367 0.286593 16.2031 0Z" fill="white"/>
<path d="M21.4618 4.51481C22.1074 6.14139 22.7322 7.59071 23.2529 9.07132C24.2651 11.7616 24.6877 14.6384 24.4921 17.5066C24.4084 19.1633 23.7799 20.7457 22.7044 22.0074C21.6289 23.2691 20.1669 24.1392 18.5461 24.4822C15.7058 24.9444 12.7922 24.5032 10.2154 23.2205C7.79956 22.1778 5.55028 20.8015 3.22812 19.5711L3.29061 19.2062C4.94887 18.4407 6.65297 17.7791 8.39312 17.2251C10.229 16.8372 12.0856 16.5553 13.9538 16.3805C15.0868 16.1909 16.1296 15.6433 16.9296 14.8178C17.7296 13.9924 18.2449 12.9324 18.4003 11.7927C18.5957 9.77016 19.3135 7.83334 20.4829 6.17267C20.7745 5.70346 21.0453 5.19255 21.4618 4.51481Z" fill="white"/>
</svg>
