<svg width="31" height="29" viewBox="0 0 31 29" fill="none" xmlns="http://www.w3.org/2000/svg">
<path d="M0.0251053 16.7373C-0.141507 13.7761 0.972712 11.1069 2.05569 8.46888C3.10652 5.70206 4.82348 3.23789 7.05408 1.29523C7.72139 0.727431 8.51583 0.329479 9.36979 0.135229C10.2237 -0.0590206 11.1119 -0.0437926 11.9587 0.179586C14.7033 0.799699 17.1882 2.25688 19.071 4.35031C20.0557 5.15585 21.2462 5.66878 22.5074 5.8309C24.0694 6.23755 25.6314 6.51908 27.183 7.04042C30.307 8.0831 31.265 12.1496 30.6506 14.8292C30.1578 17.2505 29.2974 19.5819 28.0993 21.7422C26.8291 24.1499 24.9919 26.2114 22.7469 27.7481C22.0032 28.2147 21.1653 28.5101 20.2937 28.6129C19.422 28.7156 18.5385 28.6233 17.7069 28.3424C15.5977 27.7452 13.7039 26.5547 12.2503 24.912C10.9799 23.5252 9.22004 23.2646 7.39772 23.2854C5.29349 23.322 3.24615 22.6004 1.62875 21.2522C1.06759 20.8804 0.620553 20.3599 0.337412 19.7487C0.0542706 19.1375 -0.0538464 18.4596 0.0251053 17.7905C0.0447923 17.4397 0.0447923 17.0881 0.0251053 16.7373ZM12.5211 20.5744C12.7189 21.6171 12.8647 22.7223 13.1458 23.7754C13.2187 24.0778 13.6978 24.2864 13.9893 24.5366C14.1807 24.203 14.3443 23.8543 14.4788 23.4939C14.4788 23.3375 14.385 23.129 14.3225 22.9413C13.8867 21.6678 13.9237 20.2797 14.4267 19.0313C14.919 17.79 15.5038 16.5875 16.1761 15.434C17.6027 13.0775 18.894 10.5021 22.1742 10.2206C22.3929 10.2206 22.5699 9.74096 22.7573 9.48029C22.4553 9.31346 22.1117 8.95897 21.8618 9.0111C20.6226 9.27177 19.4147 9.64711 18.2692 9.95991C18.1026 8.91723 17.9256 7.70772 17.6965 6.50864C17.6132 6.09157 17.5923 5.46598 16.905 5.68494C16.2178 5.90391 16.3115 6.40438 16.4677 7.04042C16.9493 8.57849 16.9238 10.2309 16.3948 11.7533C15.7009 13.3686 14.8755 14.924 13.9268 16.4037C12.6981 18.3848 11.3339 20.2825 8.72019 20.6578C8.59723 20.7163 8.49141 20.8056 8.41297 20.917C8.33453 21.0285 8.28613 21.1583 8.27243 21.2939C8.30149 21.4276 8.36336 21.5519 8.45244 21.6557C8.54153 21.7595 8.65503 21.8394 8.78269 21.8882C9.16574 21.9651 9.56267 21.9326 9.92814 21.7944C10.8549 21.4711 11.6984 21.0541 12.5523 20.5744H12.5211Z" fill="white"/>
</svg>
