<svg width="31" height="30" viewBox="0 0 31 30" fill="none" xmlns="http://www.w3.org/2000/svg">
<path d="M8.87267 24.2685C5.93612 24.4875 3.8118 24.133 1.91658 22.8714C1.3232 22.5198 0.833341 22.0173 0.496802 21.4147C0.160262 20.8122 -0.0109579 20.1312 0.000543509 19.4409C0.0977058 14.0589 1.81834 8.83216 4.93645 4.44719C5.97505 3.08314 7.18617 1.8599 8.53944 0.808213C9.97647 -0.453432 14.2668 -0.171913 15.7246 1.194C16.9963 2.30476 18.3621 3.30256 19.8066 4.17608C20.3053 4.39522 20.8449 4.50541 21.3894 4.49931C23.8574 4.75998 26.2733 5.10406 28.3559 6.67851C29.0015 7.15317 29.5265 7.77334 29.8883 8.48885C30.2501 9.20436 30.4386 9.99512 30.4386 10.7971C30.47 13.642 29.9831 16.4687 29.0016 19.1386C28.1672 21.7097 26.9413 24.1365 25.3673 26.3331C22.8473 29.7739 19.4109 29.7009 16.0474 28.0118C15.3831 27.664 14.7727 27.2215 14.2355 26.698C12.5173 25.0297 10.6846 23.8202 8.87267 24.2685ZM13.1838 21.9747C13.5586 22.7254 13.9231 23.6012 14.4125 24.3833C14.5791 24.6439 15.0894 24.6856 15.4539 24.8316C15.4539 24.425 15.6621 23.8619 15.4539 23.6116C14.35 22.2353 14.6937 20.6817 15.0894 19.3054C15.8287 16.6778 16.9013 14.1545 17.7448 11.5687C18.3071 9.84827 19.1298 8.44065 21.077 8.17998C21.7539 8.07571 22.4412 8.09655 23.1597 8.00271C23.4516 7.92607 23.7318 7.81034 23.9928 7.65864C23.8307 7.3318 23.6278 7.02698 23.3888 6.75151C23.1649 6.61312 22.8971 6.56468 22.639 6.61595C21.5876 6.75644 20.5447 6.95486 19.5151 7.21029C18.9319 7.37712 18.7028 7.35627 18.4008 6.76195C17.9544 5.89312 17.3864 5.09257 16.7139 4.3846C16.3182 3.97796 15.6725 3.27936 15.0477 3.99881C14.4229 4.71826 15.3393 5.04152 15.7559 5.45859C17.4949 7.0956 17.6407 8.06529 16.7972 10.3383C16.2349 11.9024 15.6725 13.4664 15.079 15.0095C14.652 16.1043 14.1938 17.1783 13.7252 18.2523C13.0067 19.9101 12.0695 21.2761 10.0077 21.3803C9.63284 21.3803 8.96638 21.9225 8.96638 22.1102C9.10176 22.7775 9.67449 22.8088 10.2889 22.642C11.2469 22.4021 12.2362 22.1936 13.1838 21.9747Z" fill="white"/>
</svg>
