<svg width="45" height="43" viewBox="0 0 45 43" fill="none" xmlns="http://www.w3.org/2000/svg">
<path d="M27.5967 43L21.1196 42.0721C16.5502 41.4047 12.1295 39.955 8.05093 37.7866C5.79757 36.6431 3.83504 34.999 2.31321 32.9799C1.67051 32.0318 1.24405 30.9537 1.06408 29.822C0.88412 28.6904 0.955063 27.533 1.27189 26.4319C2.03206 22.8242 4.44794 20.0298 6.10365 16.8705C6.7139 15.5468 7.13122 14.1422 7.34283 12.6997C7.94681 9.67596 7.89473 6.53749 8.97771 3.60756C9.94615 0.990427 11.4561 0.375264 14.1844 0.270996C16.2285 0.282586 18.2649 0.523917 20.2553 0.990448C26.781 2.30123 33.0906 4.52296 38.9992 7.5906C40.8412 8.52822 42.4715 9.83414 43.7893 11.4277C44.3963 12.1008 44.796 12.9354 44.9401 13.8308C45.0842 14.7262 44.9666 15.6442 44.6016 16.4743C43.4063 19.003 42.0605 21.4577 40.5716 23.8252C39.6723 25.333 39.1308 27.0274 38.9888 28.7779C38.6972 32.104 38.4682 35.451 37.0519 38.5686C36.5867 39.6348 35.8431 40.5558 34.8994 41.2347C33.9557 41.9136 32.8467 42.3253 31.6891 42.4266L27.5967 43ZM21.3487 25.3266C24.402 26.6823 27.6364 27.585 30.9498 28.0063C31.6595 28.1155 32.38 28.1365 33.0949 28.0689C33.4177 28.0689 33.6885 27.631 33.9904 27.3911C33.6989 27.1617 33.4385 26.7864 33.1157 26.7238C32.0744 26.5361 30.9289 26.4319 29.8355 26.3485C27.2817 26.0394 24.7912 25.3359 22.4525 24.2631C22.2766 24.153 22.1323 23.9989 22.0337 23.8161C21.9352 23.6334 21.8857 23.4281 21.8902 23.2204C22.5254 21.135 23.1919 19.0497 23.9729 17.0373C24.7539 15.0249 25.8056 12.9291 26.7324 10.875C26.9406 10.385 27.2114 9.83239 26.5553 9.53001C26.3575 9.44659 25.7639 9.89493 25.6182 10.2286C24.3477 13.0021 23.1086 15.8069 21.9214 18.57C21.432 19.7378 21.1509 20.9786 20.7135 22.1673C20.5261 22.6782 20.3699 23.4289 19.516 22.9701C17.6728 21.99 15.8297 21.0099 14.0178 19.9672C12.8619 19.2999 11.7893 18.4866 10.623 17.8297C10.321 17.6629 9.82119 17.8297 9.40466 17.8297C9.51753 18.1952 9.67491 18.5454 9.87326 18.8724C10.1736 19.1848 10.526 19.4424 10.9146 19.6336C13.747 21.2497 16.6003 22.8346 19.4223 24.4716C19.5609 24.5522 19.679 24.6638 19.7675 24.7976C19.8561 24.9314 19.9125 25.0839 19.9325 25.2432C19.7242 26.557 19.3077 27.8291 19.1827 29.1428C18.9745 31.4472 18.9016 33.7515 18.8391 36.0662C18.8391 36.2956 19.2973 36.5354 19.5368 36.7753C19.7555 36.5042 20.0783 36.2643 20.172 35.9515C20.2657 35.6387 20.0887 35.2425 20.1095 34.9089C20.2865 32.5628 20.4427 30.2272 20.6927 27.902C20.8623 27.0277 21.0955 26.1669 21.3904 25.3266H21.3487Z" fill="white"/>
</svg>
