<svg width="42" height="41" viewBox="0 0 42 41" fill="none" xmlns="http://www.w3.org/2000/svg">
<path d="M26.3506 40.0952C23.9764 39.7094 21.2064 39.2402 18.4261 38.8023C16.3434 38.4895 14.3233 38.2497 12.2718 37.9265C9.81087 37.6792 7.37342 37.2363 4.98253 36.6022C3.22508 36.052 1.74976 34.8398 0.867748 33.2214C-0.0142599 31.6029 -0.233982 29.7047 0.254909 27.9271C1.21293 24.6218 2.33756 21.3582 3.24352 18.0321C3.74073 16.1156 4.08889 14.1634 4.28485 12.1931C4.43157 9.56107 4.95046 6.96324 5.82601 4.47721C6.37562 3.20176 7.27254 2.10689 8.41424 1.31773C9.55593 0.528565 10.8964 0.0769555 12.2823 0.0145337C15.4062 -0.131442 18.1658 0.848671 20.9982 1.76623C23.2253 2.46526 25.512 2.95741 27.8293 3.23642C31.2621 3.53449 34.6079 4.47904 37.6907 6.02039C38.4424 6.46863 39.0896 7.07268 39.5889 7.79204C40.0882 8.5114 40.428 9.32941 40.5856 10.1911C41.3927 14.0707 41.516 18.0617 40.95 21.9839C40.6314 26.694 39.3068 31.2808 37.0659 35.4344C36.4504 36.5738 35.5641 37.5437 34.4853 38.2584C33.4064 38.9731 32.1683 39.4106 30.8804 39.5322C29.5267 39.6573 28.1729 39.8658 26.3506 40.0952ZM18.5823 22.8597C18.4608 23.28 18.3703 23.7086 18.3115 24.1422C18.1553 27.3537 17.5514 30.5755 18.3115 33.7766C18.4053 34.1624 18.8739 34.4439 19.1654 34.8193C19.3425 34.4856 19.6861 34.1415 19.6653 33.7766C19.6028 32.7339 19.28 31.6912 19.3112 30.586C19.3633 28.4381 19.5611 26.2901 19.7278 24.1422C19.7798 23.5062 20.0922 23.0995 20.8212 23.2142C21.6749 23.4242 22.5466 23.5533 23.4245 23.6C26.0799 23.5166 28.7665 23.9754 31.4115 23.2455C31.9946 23.0787 32.4528 22.8701 32.3695 22.2862C32.3695 22.0568 31.5989 21.8379 31.1824 21.8379C30.7658 21.8379 30.141 22.1924 29.6829 22.1924C26.7567 22.1924 23.8098 22.4739 20.9149 21.7545C20.6962 21.7023 20.363 21.2957 20.3942 21.108C20.8211 19.0226 21.1752 16.833 21.8 14.7581C22.4873 12.4225 23.4453 10.1703 24.2367 7.87636C24.32 7.63655 24.1222 7.07349 23.9451 7.02136C23.781 6.99136 23.6122 7.00129 23.4527 7.05028C23.2932 7.09927 23.1478 7.18588 23.0288 7.30287C22.6099 8.06906 22.2613 8.87176 21.9874 9.70106C21.3835 11.4528 20.7587 13.194 20.2693 14.977C19.7798 16.76 19.4258 18.762 18.9572 20.6492C18.8947 20.9099 18.4678 21.3269 18.3011 21.2852C16.3643 20.7848 14.4274 20.2425 12.5218 19.6482C10.8556 19.1165 9.23117 18.4387 7.56504 17.8965C7.24223 17.7923 6.79445 18.0529 6.39874 18.1364C6.64866 18.4804 6.82569 19.0122 7.1485 19.1269C10.085 20.1696 13.0424 21.108 15.9998 22.0673C16.8433 22.3488 17.7076 22.5886 18.5823 22.8597Z" fill="white"/>
</svg>
