<svg width="38" height="39" viewBox="0 0 38 39" fill="none" xmlns="http://www.w3.org/2000/svg">
<path d="M2.49926 14.5252C2.49926 12.2209 2.40554 10.6777 2.49926 9.14495C2.56979 7.01208 3.26906 4.94782 4.50902 3.21212C5.5291 2.01462 6.94412 1.22294 8.49731 0.980771C11.641 0.352889 14.8648 0.233207 18.0463 0.626263C22.3561 0.856744 26.5891 1.8634 30.5422 3.59791C33.7391 5.06809 35.1553 7.97718 36.3529 11.0322C37.4508 14.0303 37.8428 17.2417 37.4983 20.4164C37.2017 24.2664 35.9059 27.9721 33.7391 31.1664C31.8146 34.0872 28.9062 36.2185 25.5439 37.1722C22.5528 37.9772 19.4503 38.2871 16.3593 38.0898C15.6096 38.0898 14.8494 38.0898 14.1101 38.0272C10.527 37.8795 7.03585 36.848 3.94671 35.0243C2.56898 34.0211 1.52242 32.6282 0.941589 31.0246C0.360764 29.4211 0.27222 27.6803 0.687343 26.026C1.79115 22.0429 3.1553 18.039 2.49926 14.5252ZM6.66458 17.7158L6.55003 17.4551L5.45663 18.1746C5.6649 18.4561 5.83152 18.9149 6.10226 18.9879C6.95111 19.2103 7.81945 19.35 8.69516 19.405C11.5276 19.5857 14.36 19.7247 17.1924 19.822C17.9318 19.822 18.2337 20.0827 18.2337 20.8647C18.3483 23.6174 18.2337 26.4118 19.1918 29.0602C19.6635 30.3402 20.2201 31.5873 20.8579 32.793C20.962 33.0119 21.5035 33.0015 21.8367 33.1058C21.8367 32.7617 21.92 32.4176 21.9409 32.0631C21.9409 31.9797 21.8367 31.8963 21.7951 31.8129C20.6004 29.675 19.9261 27.2851 19.827 24.8373C19.7228 22.0638 19.6812 19.2798 19.827 16.4959C19.9921 14.5211 20.3089 12.562 20.7746 10.636C21.1286 8.98857 21.7014 7.40369 22.1596 5.77711C22.2845 5.34961 22.4719 4.73443 21.8159 4.73443C21.5921 4.76654 21.3797 4.85386 21.1979 4.98854C21.0162 5.12323 20.8707 5.30105 20.7746 5.506C20.3893 6.54868 20.1602 7.59136 19.8582 8.63405C19.0003 11.5637 18.4866 14.5836 18.3275 17.6324C18.3275 17.8931 17.9318 18.3623 17.7131 18.3623C15.922 18.3623 14.1309 18.3623 12.3398 18.2267C10.5487 18.0912 8.53897 17.893 6.63334 17.7158H6.66458Z" fill="white"/>
</svg>
