<svg width="35" height="27" viewBox="0 0 35 27" fill="none" xmlns="http://www.w3.org/2000/svg">
<path d="M0.295744 7.19449C1.48732 7.75404 2.71133 8.24151 3.96121 8.65426C5.60651 9.09218 7.3039 9.38414 8.99085 9.69694C10.6778 10.0097 12.3231 10.1453 13.9996 10.3538L18.644 10.896C20.5079 11.1254 22.3615 11.5008 24.2359 11.5738C26.4747 11.6572 28.724 11.5738 30.9629 11.4069C31.763 11.3044 32.5536 11.1371 33.3267 10.9064C32.9859 11.9824 32.5575 13.0286 32.0459 14.0345C30.9008 15.9684 29.6203 17.8186 28.2138 19.5711C25.7978 22.673 22.3955 24.8546 18.5711 25.7542C17.09 26.1001 15.5536 26.1369 14.0577 25.8625C12.5618 25.588 11.1383 25.0081 9.87595 24.1589C5.57526 21.229 3.34682 16.8602 1.71194 12.1577C1.17045 10.6041 0.795582 8.96705 0.295744 7.19449ZM2.81574 1.06354C0.587298 1.44933 -0.474836 3.04463 0.202028 4.77548C0.438169 5.24398 0.768024 5.65884 1.17109 5.99427C1.57416 6.3297 2.04183 6.57853 2.54502 6.72529C5.28194 7.76873 8.15386 8.41478 11.0735 8.64382C14.0621 9.05047 17.082 9.21729 20.081 9.60309C23.2355 10.1268 26.4347 10.3294 29.63 10.2078C30.8266 10.0838 31.9946 9.76323 33.0872 9.25902C34.1285 8.80024 34.3264 7.94523 33.8265 6.89212C33.0439 5.45849 31.778 4.34989 30.2548 3.76408C27.1071 2.22506 23.7051 1.27453 20.2164 0.959265C16.9674 0.688168 13.7289 0.344085 10.0426 0C7.89743 0.344085 5.33576 0.625613 2.81574 1.06354Z" fill="white"/>
</svg>
