<svg width="24" height="25" viewBox="0 0 24 25" fill="none" xmlns="http://www.w3.org/2000/svg">
<path d="M1.25025 4.33756C3.74944 6.8817 7.10251 7.80969 10.2265 9.16518C12.8402 10.3121 15.4332 11.4382 18.1198 12.5122C18.9164 12.7738 19.7263 12.9931 20.5461 13.1691C20.9522 13.2733 21.3375 13.4193 21.8165 13.5653C21.6617 13.8569 21.4841 14.1358 21.2854 14.3994C18.6821 17.3711 16.1308 20.3844 12.7361 22.5323C10.6265 24.0467 8.01991 24.6992 5.4468 24.357C4.68252 24.2606 3.95508 23.972 3.33233 23.518C2.70958 23.064 2.2118 22.4594 1.88544 21.7608C0.978111 19.7398 0.468986 17.5625 0.385959 15.3483C0.271412 13.2227 0.271412 11.0926 0.385959 8.96707C0.469265 7.43432 0.771227 5.912 0.979492 4.37926L1.25025 4.33756ZM4.66581 0.166833C4.44214 0.124754 4.21261 0.124754 3.98895 0.166833C3.26002 0.500491 2.23952 0.302382 1.90629 1.32421C1.74048 1.77454 1.73488 2.26836 1.89043 2.72234C2.04599 3.17632 2.35319 3.56267 2.76019 3.81622C3.70592 4.55615 4.71667 5.20875 5.78004 5.76603C8.14385 6.86084 10.5493 7.8514 12.9756 8.82109C15.7456 9.91591 18.5571 10.9065 21.3687 11.9491C21.7338 12.1462 22.1592 12.1999 22.5616 12.0996C22.9641 11.9993 23.3148 11.7523 23.5451 11.4069C23.7314 10.7065 23.6458 9.9614 23.3056 9.32157C22.5246 7.65328 20.9418 6.72531 19.5152 5.71391C16.5874 3.75801 13.3627 2.28967 9.96617 1.36591C8.24797 0.834143 6.4673 0.448353 4.75952 0L4.66581 0.166833Z" fill="white"/>
</svg>
