<svg width="25" height="25" viewBox="0 0 25 25" fill="none" xmlns="http://www.w3.org/2000/svg">
<path d="M8.0895 0.00773676C10.0077 -0.0659943 11.9094 0.38842 13.5877 1.32153C16.2933 2.58912 18.7348 4.35806 20.7833 6.53493C22.8241 8.46329 24.1279 11.0449 24.4696 13.8337C24.5385 14.6417 24.4537 15.4555 24.2197 16.2319C23.9335 16.8097 23.4387 17.2571 22.8356 17.4836C22.2324 17.7101 21.5658 17.6987 20.9707 17.4518C19.138 16.7219 17.3157 15.8982 15.4309 15.3664C14.1092 15.0133 12.7479 14.8311 11.3801 14.8242C10.4447 14.8414 9.53741 14.5038 8.84021 13.8792C8.14301 13.2546 7.70745 12.3891 7.62089 11.4564C7.36334 9.18412 6.53584 7.01406 5.21542 5.14816C4.82948 4.73721 4.55807 4.232 4.42832 3.68305C4.29857 3.13411 4.31505 2.56069 4.47608 2.02012C4.62588 1.48823 4.94061 1.01776 5.37485 0.676659C5.8091 0.335561 6.34035 0.141479 6.89194 0.122432C7.38137 -0.023543 7.87082 0.00773676 8.0895 0.00773676ZM2.77871 4.61639C1.48592 7.48912 0.599206 10.5282 0.144149 13.646C-0.153158 15.6135 0.0108281 17.6232 0.623151 19.5163C1.94564 23.3117 5.23624 24.5525 8.37064 24.4482C10.8901 24.3423 13.3532 23.6687 15.5766 22.4775C17.5135 21.4348 19.3775 20.2775 21.4602 19.068C19.8773 18.3694 18.6173 17.7646 17.2948 17.285C16.3801 16.957 15.4396 16.7059 14.4832 16.5342C12.89 16.2318 11.2759 16.0859 9.69312 15.7209C8.77768 15.4794 7.95706 14.9653 7.33974 14.2466C6.72242 13.528 6.33748 12.6386 6.2359 11.6962C6.18448 10.8189 6.00196 9.95428 5.69442 9.1312C4.94466 7.4212 4.03871 5.76334 3.12234 3.91779C2.99546 4.14437 2.88076 4.37756 2.77871 4.61639Z" fill="white"/>
</svg>
