<svg width="31" height="29" viewBox="0 0 31 29" fill="none" xmlns="http://www.w3.org/2000/svg">
<path d="M23.1845 23.3547C22.224 23.2762 21.2585 23.424 20.3652 23.7861C19.472 24.1482 18.6758 24.7146 18.0403 25.44C17.179 26.4306 16.1236 27.2333 14.9395 27.7983C13.7554 28.3633 12.468 28.6786 11.1571 28.7245C9.88568 28.7027 8.6551 28.2713 7.64784 27.4941C6.38773 26.5746 5.28668 25.4546 4.38848 24.1784C3.19227 22.5579 2.17945 20.8093 1.36863 18.965C0.605868 17.2393 0.147817 15.3942 0.014888 13.5118C-0.141311 10.1543 0.90002 7.923 4.63839 6.72392C6.28369 6.19215 8.06436 6.04615 9.70966 5.49353C10.672 5.11829 11.5499 4.55468 12.2922 3.83567C13.7154 2.44132 15.3952 1.33654 17.2385 0.582514C20.2583 -0.522728 22.4451 -0.0952318 24.6944 2.20909C26.8884 4.6053 28.5338 7.45199 29.5157 10.5505C30.5154 13.0705 30.956 15.778 30.807 18.4854C30.7423 19.1222 30.5321 19.7356 30.1926 20.278C29.8531 20.8205 29.3935 21.2774 28.8493 21.6134C27.2104 22.8155 25.2146 23.4289 23.1845 23.3547ZM12.49 10.0292C11.355 9.73725 10.1991 9.38275 9.02238 9.16379C8.72039 9.10123 8.3351 9.42445 7.98105 9.58086C8.21617 9.86798 8.49357 10.1176 8.80371 10.3212C9.68926 10.585 10.5472 10.9342 11.3654 11.3638C13.2293 12.6776 14.1874 14.7526 15.2703 16.6815C16.4679 18.819 17.353 21.0608 16.3117 23.5737C16.2075 23.8135 16.6137 24.2618 16.7803 24.6163C17.0614 24.4078 17.5092 24.2514 17.5925 23.9907C17.9153 22.8646 18.134 21.7072 18.3943 20.5394L18.6547 20.675C19.6439 21.1337 20.6124 21.6447 21.6329 22.0096C21.862 22.093 22.2681 21.6447 22.6013 21.4466C22.341 21.1859 22.1119 20.7688 21.8099 20.7063C20.5418 20.492 19.4046 19.7976 18.6339 18.7669C17.3426 16.9318 16.0201 15.1071 14.9059 13.1677C14.4395 12.2115 14.1838 11.166 14.1561 10.1022C14.1758 9.03534 14.2523 7.9703 14.3852 6.9116C14.3852 6.5258 14.1978 5.92105 13.9271 5.80636C13.3647 5.56654 13.1565 6.05658 13.0836 6.56749C12.8545 7.75615 12.6566 8.96567 12.49 10.0292Z" fill="white"/>
</svg>
