<svg width="31" height="30" viewBox="0 0 31 30" fill="none" xmlns="http://www.w3.org/2000/svg">
<path d="M22.0601 24.3464C21.0947 24.3366 20.1332 24.4701 19.2069 24.7426C18.0348 25.3063 16.9593 26.0524 16.0204 26.9531C15.0509 27.8441 13.8872 28.4964 12.6219 28.8584C11.3566 29.2204 10.0244 29.2821 8.73113 29.0385C7.72821 28.7615 6.82278 28.2089 6.11738 27.4432C4.14243 25.4323 2.67209 22.9809 1.82712 20.2904C0.767089 17.5309 0.15197 14.6203 0.00479509 11.6674C-0.109751 8.14317 1.83753 6.30805 4.81572 5.41134C6.34648 4.94213 8.03343 4.95256 9.60584 4.56677C10.568 4.31267 11.48 3.8966 12.3029 3.33638C13.5837 2.49181 14.6354 1.25102 15.9996 0.635843C17.1213 0.0914466 18.3783 -0.109866 19.6137 0.0570347C20.849 0.223936 22.0078 0.751643 22.9452 1.57425C25.1897 3.55269 26.9043 6.06172 27.9332 8.87302C28.8921 11.3224 29.6717 13.8385 30.2658 16.4012C30.5546 17.7764 30.5546 19.1967 30.2658 20.5719C30.0617 21.27 29.6904 21.9076 29.184 22.4292C28.6776 22.9507 28.0516 23.3405 27.3605 23.5644C25.7015 24.3163 23.8652 24.5872 22.0601 24.3464ZM17.3741 22.0212C18.4155 22.2923 19.5193 22.6364 20.6752 22.8554C20.9251 22.9075 21.2791 22.5009 21.5811 22.3028C21.4099 22.0361 21.1992 21.797 20.9563 21.5937C20.6602 21.4497 20.3376 21.3681 20.0087 21.3539C19.3852 21.2965 18.7914 21.0604 18.2983 20.674C17.8052 20.2875 17.4338 19.767 17.2283 19.1747C15.8954 16.005 14.6355 12.8005 13.4483 9.56119C13.1973 9.0018 13.1306 8.37694 13.2579 7.77707C13.3852 7.1772 13.6999 6.63347 14.1564 6.22463C14.6141 5.80616 15.0388 5.35297 15.4269 4.86913C15.5008 4.76253 15.5496 4.64047 15.5694 4.5122C15.5893 4.38393 15.5797 4.25284 15.5414 4.12883C15.4481 4.03041 15.3311 3.95762 15.2016 3.91745C15.0722 3.87728 14.9346 3.87109 14.8021 3.89944C14.2391 4.20886 13.7293 4.60666 13.2921 5.07767C12.6986 5.79713 12.3966 7.02747 11.6885 7.309C10.9804 7.59052 9.92864 6.86065 9.01227 6.76681C8.27714 6.74312 7.54283 6.8346 6.8359 7.03792C6.6797 7.03792 6.52351 7.52796 6.54433 7.76778C6.56516 8.0076 6.92962 8.07015 7.15871 8.09101C7.6789 8.05952 8.20051 8.05952 8.7207 8.09101C10.543 8.46637 11.6572 8.80005 12.282 10.5205C13.1567 12.9395 14.1668 15.3064 14.9374 17.7567C15.4373 19.3311 16.1245 20.9577 15.5101 22.6781C15.3435 23.1265 14.9895 23.5123 14.8437 23.9606C14.7604 24.2109 14.8437 24.7531 14.9791 24.8052C15.1145 24.8573 15.7809 24.8573 15.8954 24.6801C16.4473 23.8251 16.9055 22.8867 17.3741 22.0212Z" fill="white"/>
</svg>
