<svg width="44" height="43" viewBox="0 0 44 43" fill="none" xmlns="http://www.w3.org/2000/svg">
<path d="M29.9228 0C31.0957 0.173438 32.2571 0.417181 33.4009 0.72989C35.2961 1.37635 36.0354 3.0342 36.3478 4.81718C36.8477 7.63242 37.0663 10.4894 37.6182 13.2942C37.9563 14.7822 38.4959 16.217 39.2219 17.5587C40.3778 19.8214 41.8565 21.9276 42.9394 24.2215C44.1682 26.8386 44.5119 29.6226 43.0123 32.2918C41.9753 34.011 40.5483 35.4613 38.847 36.5251C35.3845 38.8058 31.5285 40.4217 27.4757 41.2902C25.3097 41.7907 23.0917 42.1035 20.8945 42.4163C19.3201 42.6914 17.7232 42.8171 16.1252 42.7916C14.4738 42.7139 12.8409 42.4087 11.2726 41.8845C10.359 41.5109 9.54667 40.9259 8.9023 40.1774C8.25794 39.4289 7.79983 38.5382 7.5655 37.5782C6.79517 35.4752 6.37649 33.2593 6.32631 31.0198C6.32631 27.1723 4.72267 23.9295 2.58794 20.8328C1.53992 19.3008 0.725677 17.621 0.172052 15.8488C-0.0451853 15.0538 -0.0569014 14.2166 0.138017 13.4158C0.332935 12.6151 0.728088 11.8771 1.28628 11.2714C2.52994 9.73841 4.10806 8.51136 5.89936 7.68456C9.51277 6.0684 13.1366 4.44183 16.8541 3.07592C19.4247 2.22724 22.043 1.53092 24.6953 0.99056C26.4239 0.563061 28.1942 0.323231 29.9228 0ZM12.4806 26.6926H11.9807C11.5225 26.6926 10.9394 26.5258 10.8769 27.2974C10.8144 28.069 11.408 28.1107 11.9182 28.069C13.3785 28.0486 14.8346 27.9056 16.271 27.6415C18.4994 27.0889 20.655 26.2652 22.8522 25.5561C23.0813 25.4936 23.6124 25.6812 23.6436 25.8376C24.0361 27.2789 24.3284 28.7456 24.5183 30.2274C24.6849 32.1459 24.6016 34.0852 24.7058 36.0038C24.7058 36.2645 25.1327 36.5147 25.3514 36.7649C25.5597 36.5773 25.8825 36.4209 25.9554 36.181C26.6427 33.981 25.9554 31.7705 25.8408 29.5705C25.6261 28.07 25.3095 26.586 24.8932 25.1286C24.8932 24.9618 25.1327 24.649 25.3306 24.5343C28.4546 22.7131 31.5785 20.9058 34.7025 19.1124C35.2232 18.81 35.6085 18.4033 35.2024 17.8924C35.0462 17.7047 34.286 17.809 33.932 18.0071C31.1204 19.592 28.3435 21.2151 25.6013 22.8764C24.7474 23.3873 24.3517 23.0745 24.0914 22.2925C23.5291 20.6034 23.0501 18.8621 22.4044 17.2251C21.3631 14.7852 20.2489 12.4079 19.1034 10.0306C18.9784 9.76992 18.5099 9.6761 18.1975 9.49884C18.1037 9.85335 17.8642 10.2496 17.9475 10.5415C18.0933 11.0629 18.489 11.5112 18.6869 12.0221C20.0753 15.4977 21.4117 18.9977 22.696 22.5219C23.2167 23.8983 23.1646 23.9191 21.7901 24.4822C18.8128 25.675 15.6757 26.4199 12.4806 26.6926Z" fill="white"/>
</svg>
