<svg width="42" height="41" viewBox="0 0 42 41" fill="none" xmlns="http://www.w3.org/2000/svg">
<path d="M0.385286 17.4758C0.275828 15.9763 0.275828 14.4709 0.385286 12.9714C0.687272 10.886 0.801826 8.51916 2.80118 7.23667C4.40016 6.25624 6.1094 5.46876 7.89326 4.89063C9.56786 4.40469 11.2723 4.02851 12.9958 3.76452C14.0371 3.55598 15.1305 3.5247 16.1718 3.27446C18.369 2.73226 20.5662 2.2318 22.7114 1.50192C25.0402 0.646308 27.5329 0.332529 30.0007 0.584355C31.5847 0.818249 33.0478 1.56786 34.1639 2.71745C35.28 3.86703 35.987 5.35263 36.1757 6.94472C36.7172 9.91636 36.9359 12.9401 37.4982 15.9013C37.9433 17.832 38.4961 19.7361 39.154 21.6048C39.8517 23.93 40.7888 26.2135 41.2366 28.5803C41.6579 30.4428 41.3335 32.3964 40.3328 34.0221C39.3322 35.6478 37.7351 36.8161 35.8842 37.2763C33.3108 37.9552 30.6709 38.3503 28.0117 38.4545C26.2043 38.6299 24.412 38.9366 22.6489 39.3721C19.2675 40.2378 15.7698 40.5581 12.2877 40.3209C10.3603 40.256 8.4846 39.6803 6.85193 38.6526C5.1085 37.3395 3.81357 35.5185 3.1448 33.4392C2.26006 31.1119 1.58062 28.7116 1.11423 26.2656C0.572738 23.3774 0.354052 20.4161 0 17.4862L0.385286 17.4758ZM22.8155 22.0114C22.6385 21.4275 22.4823 20.9688 22.3886 20.5725C22.1907 19.6863 22.0866 18.7791 21.8471 17.9137C21.2639 15.8283 20.66 13.743 19.9831 11.6576C19.5307 10.3367 19.0057 9.0418 18.4107 7.77885C18.3274 7.58074 17.8484 7.55989 17.5568 7.45562C17.4527 7.758 17.2132 8.09165 17.2861 8.33147C17.536 9.14476 17.9421 9.89549 18.2024 10.7088C18.9834 13.2112 19.754 15.7241 20.4829 18.2474C20.7953 19.363 21.014 20.51 21.2223 21.6569C21.2179 21.7723 21.1828 21.8844 21.1205 21.9816C21.0583 22.0788 20.9711 22.1575 20.8682 22.2096C19.957 22.4476 19.0266 22.6046 18.0879 22.6788C16.0052 22.7413 13.8288 22.6788 11.7045 22.6788C11.111 22.6788 10.5174 22.3555 9.91344 22.3243C9.75636 22.3509 9.60839 22.4163 9.48293 22.5146C9.35747 22.613 9.25848 22.741 9.19492 22.8873C9.18883 23.0363 9.22225 23.1842 9.29175 23.3161C9.36125 23.4479 9.46436 23.559 9.59063 23.638C10.3623 23.8938 11.1639 24.0481 11.9753 24.0968C13.9642 24.1594 15.9636 24.1594 17.9629 24.0968C18.9314 24.0968 19.8894 23.784 20.8578 23.7423C21.0393 23.7642 21.2118 23.8335 21.358 23.9433C21.5043 24.0532 21.6191 24.1996 21.6909 24.3679C21.9199 25.7782 22.0418 27.2038 22.0553 28.6325C22.0553 30.5197 21.8262 32.407 21.7533 34.2942C21.7533 34.607 22.0658 34.9198 22.2324 35.2326C22.5578 34.9788 22.8423 34.6764 23.0758 34.3359C23.232 34.044 23.0758 33.6269 23.18 33.2933C23.6331 31.0113 23.6331 28.6623 23.18 26.3803C22.9448 25.4091 22.927 24.3979 23.1279 23.4191C23.2424 23.0228 24.4087 22.9186 25.1064 22.71C26.6892 22.2408 28.2825 21.8446 29.8445 21.3024C31.4065 20.7602 32.9684 20.0929 34.5409 19.4152C34.7908 19.3109 34.8741 18.8417 35.0407 18.5393C34.6971 18.4559 34.3118 18.2161 33.9994 18.3099C32.8539 18.6749 31.7605 19.1858 30.6151 19.5507C28.1471 20.3849 25.5854 21.1564 22.8155 22.0114Z" fill="white"/>
</svg>
