<svg width="38" height="38" viewBox="0 0 38 38" fill="none" xmlns="http://www.w3.org/2000/svg">
<path d="M35.8769 12.941C36.0435 15.3496 36.1164 17.7582 36.3976 20.1564C36.658 21.3632 36.9883 22.5539 37.3868 23.7223C37.9804 26.1413 38.4281 28.5812 37.3243 31.0211C36.7866 32.2179 35.9902 33.2802 34.9925 34.1313C33.9949 34.9824 32.8209 35.6011 31.5554 35.9425C29.9621 36.4639 28.2856 36.7141 26.6507 37.1312C23.5692 37.785 20.3969 37.8909 17.2787 37.444C12.9468 37.0478 8.80232 35.807 5.82412 32.2306C4.10278 30.168 2.79463 27.7926 1.97122 25.2342C0.962224 22.2981 0.568722 19.1851 0.815328 16.0899C1.05646 13.1347 1.89995 10.2603 3.2937 7.64419C4.4607 5.3124 6.46598 3.50939 8.90645 2.59762C10.4939 2.04682 12.1104 1.58385 13.7487 1.21083C15.5397 0.793761 17.3725 0.501811 19.1844 0.168153C19.6943 0.059398 20.2146 0.00695696 20.736 0.0117569C23.7662 0.126452 26.7965 -0.259355 29.8059 0.387107C31.0195 0.561397 32.1607 1.07006 33.1022 1.85627C34.0437 2.64249 34.7484 3.67532 35.1375 4.83938C35.945 7.45886 36.1968 10.2184 35.8769 12.941ZM29.7435 18.3421V18.5506C30.6494 18.4672 31.5658 18.4359 32.4613 18.2691C32.6904 18.2691 32.8362 17.7582 33.0236 17.4871C32.805 17.3411 32.5863 17.0596 32.3676 17.07C30.6702 17.07 28.9729 17.143 27.2755 17.2681C25.3282 17.4141 23.3914 17.6539 21.4545 17.852C21.2326 17.9103 20.9995 17.9103 20.7776 17.852C20.5173 17.706 20.1632 17.4558 20.132 17.216C19.9341 15.9961 19.7988 14.7657 19.6946 13.5353C19.3745 10.5646 18.6926 7.64425 17.664 4.83938C17.5703 4.51614 17.0184 4.34931 16.6227 4.11992C16.4886 4.4587 16.3807 4.80729 16.2999 5.1626C16.2999 5.32943 16.4144 5.52754 16.4665 5.71522C16.9247 7.34181 17.5078 8.9371 17.7994 10.595C18.2264 12.8576 18.3721 15.1723 18.7678 17.4454C19.1226 20.1116 19.0593 22.8169 18.5804 25.4636C18.3363 27.6117 17.6483 29.6855 16.5602 31.5529C16.4249 31.7718 16.6331 32.1993 16.6748 32.533C17.0184 32.4183 17.5183 32.4079 17.7161 32.168C18.1792 31.4526 18.5666 30.6908 18.872 29.895C19.7846 27.1483 20.283 24.2806 20.3507 21.3867C20.4965 19.5412 20.4652 19.5307 22.2459 19.3014H22.4437L29.7435 18.3421Z" fill="white"/>
</svg>
