<svg width="21" height="21" viewBox="0 0 21 21" fill="none" xmlns="http://www.w3.org/2000/svg">
<path d="M1.11902 14.7427C1.74382 11.2289 2.39986 7.62117 4.24301 4.38885C4.93088 2.93601 6.04171 1.72563 7.42948 0.916767C8.06611 0.493646 8.78395 0.208282 9.53708 0.079006C10.2902 -0.0502696 11.062 -0.0206404 11.803 0.166002C15.052 1.20868 16.8952 3.63813 18.1343 6.54721C19.0091 8.63258 19.4985 10.864 20.217 13.0327C20.2906 13.238 20.3811 13.4368 20.4877 13.6271C13.9898 13.8877 7.58568 13.8565 1.11902 14.7427ZM11.2407 19.7893C12.0217 19.7893 12.8131 19.7893 13.5837 19.6746C14.3688 19.6417 15.1512 19.5616 15.9267 19.4348C17.1018 19.2539 18.2612 18.982 19.3943 18.6215C19.9549 18.363 20.4182 17.9319 20.7168 17.3911C20.853 17.2072 20.9389 16.9908 20.9658 16.7634C20.9928 16.536 20.9599 16.3055 20.8704 16.0948C20.781 15.884 20.6381 15.7003 20.4559 15.5619C20.2737 15.4235 20.0585 15.3352 19.8317 15.3058C19.1769 15.1247 18.5012 15.03 17.8219 15.0242C14.9617 15.1146 12.1016 15.2536 9.24138 15.4413C6.91922 15.5873 4.60747 15.848 2.28531 16.0252C1.92168 16.0271 1.57228 16.1669 1.30753 16.4165C1.04279 16.6661 0.8824 17.0069 0.858689 17.3703C0.757229 17.7393 0.788114 18.1323 0.946018 18.4809C1.10392 18.8295 1.37885 19.1117 1.72298 19.2784C2.71689 19.7942 3.79696 20.1229 4.90945 20.2481C6.9921 20.2481 9.12684 19.9353 11.2303 19.7476L11.2407 19.7893Z" fill="white"/>
</svg>
