<svg width="22" height="22" viewBox="0 0 22 22" fill="none" xmlns="http://www.w3.org/2000/svg">
<path d="M19.9167 11.6909C16.345 11.9412 13.4084 13.401 10.3573 14.5062C8.94114 15.0171 7.43122 15.2569 5.97336 15.6844C4.18227 16.2058 2.4016 16.8001 0.443907 17.4153C0.308534 15.5593 0.131483 13.6303 0.02735 11.6909C-0.106104 9.55338 0.250073 7.41354 1.06868 5.43485C1.56614 3.83829 2.61437 2.47085 4.02605 1.57691C5.26152 0.78532 6.71895 0.413618 8.18208 0.516921C9.64521 0.620225 11.0361 1.19308 12.1484 2.15044C15.5015 4.67373 17.6883 8.04156 19.9167 11.6909ZM7.71236 21.023C10.2532 20.3244 12.7628 19.5737 15.262 18.7499C17.2615 18.2605 19.1283 17.3347 20.729 16.0389C20.9394 15.8351 21.1025 15.5876 21.2069 15.3137C21.3112 15.0399 21.3543 14.7464 21.333 14.4541C21.2308 14.1776 21.0626 13.9303 20.8429 13.734C20.6232 13.5377 20.3589 13.3983 20.0729 13.328C19.0266 13.1986 17.9652 13.2766 16.9489 13.5574C15.0225 14.1621 13.2002 15.0588 11.2945 15.7157C9.71171 16.2579 8.05601 16.602 6.45236 17.0608C5.04657 17.457 3.60953 17.8011 2.28705 18.3328C2.031 18.4688 1.80612 18.6569 1.62681 18.8849C1.4475 19.1129 1.31771 19.3759 1.24572 19.6571C1.19271 20.0224 1.27596 20.3944 1.47958 20.7022C1.68319 21.0099 1.9929 21.2317 2.34952 21.3253C3.00805 21.473 3.67617 21.5741 4.34889 21.6277C5.2965 21.4296 6.53566 21.3149 7.71236 21.023Z" fill="white"/>
</svg>
