<svg width="24" height="25" viewBox="0 0 24 25" fill="none" xmlns="http://www.w3.org/2000/svg">
<path d="M1.49481 20.0542C0.99965 18.8935 0.626263 17.6845 0.380611 16.4466C0.0600945 13.7343 -0.0582462 11.0018 0.0265628 8.27191C0.172349 5.44625 0.994971 2.72484 3.57747 1.02527C4.19521 0.57772 4.90071 0.266406 5.64741 0.11184C6.39411 -0.0427268 7.16506 -0.0370188 7.9094 0.128577C9.33602 0.472662 10.8251 0.566531 12.2101 1.00446C15.2935 1.86336 18.1727 3.33492 20.6761 5.33154C20.9364 5.56093 21.1863 5.81121 21.4154 6.01975C20.2596 6.61408 19.2078 7.22924 18.0832 7.69845C17.3233 7.95775 16.543 8.15306 15.7506 8.28235C13.8346 8.74113 11.804 8.6056 9.99206 9.60657C9.29217 9.96719 8.68306 10.4819 8.2105 11.1122C7.73795 11.7425 7.41426 12.4719 7.26378 13.2455C7.08314 14.4043 6.61864 15.5003 5.91178 16.4355C5.20492 17.3707 4.27775 18.1161 3.21303 18.6049C2.58977 19.0246 2.01366 19.5105 1.49481 20.0542ZM6.62858 24.1102C7.44602 24.1311 8.26325 24.0612 9.06529 23.9017C10.7872 23.4301 12.4554 22.7801 14.0428 21.9623C16.0725 20.8507 17.9665 19.5072 19.6868 17.9585C21.7606 16.0662 23.1056 13.5054 23.4877 10.7222C23.5233 9.82918 23.2714 8.94825 22.7692 8.20935C22.3006 7.47948 21.3842 7.57333 20.6865 8.02168C18.2394 9.50228 15.4799 9.74209 12.7516 10.1592C10.3149 10.5241 9.3048 11.2018 8.58629 13.6834C8.33431 14.7183 7.98567 15.7273 7.54496 16.6968C6.80561 18.1565 5.36856 18.9073 4.00441 19.6997C2.20292 20.7424 2.07798 22.3377 3.86907 23.4117C4.75189 23.8146 5.68283 24.1019 6.63898 24.2667L6.62858 24.1102Z" fill="white"/>
</svg>
