<svg width="27" height="28" viewBox="0 0 27 28" fill="none" xmlns="http://www.w3.org/2000/svg">
<path d="M11.35 0.0352798C13.4327 -0.214964 14.953 1.01544 16.5567 1.96428C18.7643 3.28848 20.9198 4.73781 23.2212 5.87433C24.6007 6.52115 25.7069 7.63629 26.3436 9.02198C26.9803 10.4077 27.1063 11.9744 26.6992 13.4442C25.6035 18.1156 23.1072 22.3396 19.5453 25.5497C18.853 26.2682 18.0156 26.8306 17.089 27.1992C16.1624 27.5678 15.1679 27.7342 14.172 27.6872C12.6836 27.4652 11.2874 26.8294 10.1421 25.8521C7.85114 24.2255 5.65395 22.4738 3.35261 20.8577C1.90977 19.858 0.846828 18.3993 0.336418 16.7184C-0.173992 15.0376 -0.101896 13.2333 0.54101 11.5986C1.48867 9.17832 2.749 6.89275 4.2898 4.80034C5.23934 3.50851 6.34064 2.33578 7.56998 1.30738C8.06445 0.825097 8.66095 0.460334 9.31527 0.240138C9.9696 0.019941 10.665 -0.050083 11.35 0.0352798ZM9.15282 18.5221C9.15282 18.6993 9.15281 18.9495 9.23611 19.1998C9.48603 20.2425 9.69431 21.2851 10.0275 22.3278C10.09 22.5364 10.6211 22.6094 10.9439 22.7449C11.0585 22.4425 11.2875 22.1297 11.2459 21.8482C11.04 21.2027 10.8765 20.5444 10.7564 19.8775C10.6225 18.9209 10.73 17.9459 11.0689 17.0414C12.3952 14.7235 13.8447 12.4786 15.4112 10.3162C15.9413 9.64856 16.6187 9.11285 17.3901 8.75106C18.1615 8.38928 19.0061 8.21124 19.8577 8.23081C20.3783 8.23081 21.024 8.35588 21.0448 7.59472C21.0656 6.83356 20.3575 6.78144 19.8264 6.8857C18.5144 7.14638 17.2127 7.50087 15.7861 7.84495C15.8222 7.5332 15.8222 7.21834 15.7861 6.90658C15.5808 5.84794 15.3095 4.80321 14.9738 3.77853C14.8905 3.54914 14.3178 3.48655 13.9325 3.351C13.8242 3.61947 13.7677 3.90604 13.7659 4.19557C13.9596 4.80844 14.1195 5.43155 14.2449 6.06201C14.3386 7.43835 14.6822 8.8355 13.7451 10.1284C12.8079 11.4214 11.7874 13.0584 10.8189 14.5286C10.0483 15.6964 9.38189 17.0206 7.83031 17.2813C6.93477 17.4377 6.008 17.3855 5.11246 17.4794C4.86254 17.4794 4.41476 17.7609 4.42518 17.8339C4.47807 18.1699 4.6304 18.4822 4.86252 18.7306C5.12385 18.8707 5.42592 18.915 5.71642 18.8557C6.85146 18.7723 7.9657 18.6472 9.15282 18.5221Z" fill="white"/>
</svg>
