<svg width="29" height="30" viewBox="0 0 29 30" fill="none" xmlns="http://www.w3.org/2000/svg">
<path d="M0 16.6675C0.177026 12.2778 1.89522 8.40944 4.10284 4.71835C4.58185 3.90506 5.19623 3.1752 5.72731 2.39319C6.23827 1.52248 7.07145 0.888561 8.04615 0.628954C9.02085 0.369348 10.0585 0.504967 10.934 1.0064C12.6001 1.72585 14.2141 2.59127 15.8074 3.47755C17.1661 4.26035 18.6973 4.69384 20.2643 4.73922C21.4253 4.69304 22.5817 4.91216 23.6456 5.38001C24.7096 5.84786 25.6531 6.55217 26.4048 7.43947C27.1565 8.32677 27.6965 9.37378 27.984 10.5011C28.2714 11.6285 28.2987 12.8066 28.0638 13.946C27.4851 17.2338 26.2833 20.3802 24.5233 23.2155C23.2112 25.3738 21.7534 27.4592 19.4208 28.6479C18.4074 29.189 17.2657 29.4429 16.1188 29.3822C14.9719 29.3216 13.8633 28.9487 12.9125 28.3038C11.0485 27.1568 9.29906 25.8431 7.41426 24.7483C6.16466 24.008 4.74846 23.5596 3.41556 22.934C2.31112 22.4578 1.38784 21.6402 0.780774 20.6008C0.173707 19.5615 -0.0852885 18.3549 0.0416621 17.1575L0 16.6675ZM15.4846 7.91938C15.4221 7.79426 15.37 7.71082 15.3388 7.6274C15.0249 6.70601 14.6563 5.80426 14.2349 4.9269C14.0953 4.77575 13.9205 4.66142 13.7261 4.59412C13.5318 4.52682 13.3238 4.50864 13.1208 4.54111C12.4855 4.76007 12.9021 5.20842 13.1208 5.58379C13.5819 6.31409 13.8446 7.15226 13.8829 8.01542C13.9213 8.87858 13.7339 9.7368 13.3394 10.5052C12.2981 12.7783 11.3817 15.1243 10.3612 17.4286C10.0407 18.2359 9.52604 18.9514 8.86299 19.5116C8.19994 20.0719 7.40898 20.4595 6.56036 20.6401C5.9668 20.7652 5.22747 20.7235 5.43574 21.5472C5.49822 21.8079 6.33127 21.8809 6.82069 22.006C6.95606 22.006 7.13309 21.9226 7.27888 21.86L9.8093 20.7443C9.89261 21.2136 9.93426 21.6515 10.0384 22.079C10.2779 23.0174 10.5174 23.9558 10.7882 24.8838C10.9339 25.353 11.2151 25.7701 11.8295 25.4885C12.4439 25.207 12.246 24.7483 12.0482 24.2374C11.1482 22.3419 11.0139 20.1716 11.6733 18.1794C12.5792 15.8438 13.5685 13.5394 14.6827 11.2977C15.223 10.3703 15.929 9.55035 16.7654 8.87863C17.5951 8.24429 18.4685 7.66942 19.3791 7.15825C19.8061 6.88715 20.0872 6.5639 19.7644 6.03213C19.4416 5.50037 19.098 5.68803 18.7231 5.9487C17.5984 6.60559 16.5467 7.25207 15.4846 7.91938Z" fill="white"/>
</svg>
