<svg width="44" height="44" viewBox="0 0 44 44" fill="none" xmlns="http://www.w3.org/2000/svg">
<path d="M0.259277 27.255C0.259277 23.8767 1.87334 21.1345 3.61236 18.5173C5.53425 15.454 6.9841 12.1182 7.91305 8.62228C8.66281 6.07814 9.43339 3.48184 11.3911 1.50075C12.0046 0.895138 12.7586 0.451453 13.5855 0.209424C14.4125 -0.032605 15.2864 -0.0654314 16.1291 0.113964C20.1486 0.635305 23.4809 2.85622 27.1256 4.28469C29.2082 5.11884 31.3638 5.75493 33.4568 6.55779C36.5808 7.7673 39.7048 9.00808 42.0999 11.5627C42.8277 12.3796 43.368 13.3462 43.6829 14.3946C43.9977 15.443 44.0794 16.5477 43.9222 17.6311C43.6931 20.7591 42.0374 23.2198 40.163 25.5554C38.3419 27.6163 37.0388 30.0829 36.3622 32.75C35.9873 34.4808 35.6332 36.2325 35.123 37.9634C34.7604 39.5144 33.9196 40.9119 32.7198 41.958C31.5199 43.0041 30.0218 43.6457 28.4376 43.7919C25.8181 44.1279 23.1576 43.6894 20.7839 42.5303C15.723 40.2051 10.6726 37.8278 5.70544 35.3045C4.50372 34.7744 3.42665 33.9975 2.54405 33.0239C1.66145 32.0504 0.993007 30.902 0.582087 29.6532C0.40542 28.8646 0.297414 28.0622 0.259277 27.255ZM25.5115 20.6757C25.6469 20.2795 25.7927 19.8937 25.9072 19.487C26.4175 17.6206 26.9485 15.7646 27.3963 13.8669C27.6345 12.5263 27.7841 11.1714 27.8441 9.81095C27.8272 9.67899 27.7799 9.55277 27.7058 9.44235C27.6316 9.33193 27.5328 9.24032 27.4171 9.17487C27.3026 9.11231 26.9798 9.35214 26.8132 9.51897C26.6632 9.69454 26.5626 9.90687 26.5216 10.1342C26.23 11.7608 26.0218 13.4082 25.6573 15.0139C25.2928 16.6197 24.8763 17.9647 24.4181 19.414C24.3208 19.5286 24.1966 19.6172 24.0567 19.6718C23.9167 19.7264 23.7653 19.7453 23.6163 19.7268C21.669 19.0282 19.7634 18.1941 17.7952 17.5685C15.9657 17.0315 14.1097 16.5895 12.2346 16.2443C11.9638 16.1921 11.5889 16.6196 11.2661 16.8177C11.516 17.068 11.7243 17.4747 12.0263 17.5581C14.109 18.1315 16.3166 18.6007 18.4201 19.2055C20.2111 19.7477 21.9398 20.5193 23.7725 21.2075C22.3186 24.6366 20.4135 27.8557 18.1077 30.7793C17.3891 31.7073 16.6602 32.6352 16.025 33.6258C15.8584 33.876 16.025 34.3661 16.0979 34.7519C16.4204 34.7014 16.729 34.5842 17.0039 34.4078C17.385 33.9721 17.7331 33.5086 18.0452 33.021C19.4614 31.0295 20.9505 29.0901 22.273 27.0464C23.3143 25.4616 24.0849 23.7516 25.0116 22.0312C27.9109 23.4506 30.5566 25.3388 32.8425 27.6199C33.0924 27.8806 33.5818 27.9119 33.9567 28.0474C33.8942 27.6199 33.9567 27.0047 33.738 26.7753C31.3429 24.3105 28.5647 22.2506 25.5115 20.6757Z" fill="white"/>
</svg>
