<svg width="43" height="43" viewBox="0 0 43 43" fill="none" xmlns="http://www.w3.org/2000/svg">
<path d="M17.3989 0.354248C19.19 0.635772 21.0435 0.948573 22.9075 1.2301C29.2813 2.1529 35.283 4.79895 40.2665 8.88337C40.8247 9.42046 41.2431 10.0863 41.4848 10.8227C42.8594 14.0238 42.2346 17.0788 40.9433 20.2069C40.0165 22.4069 39.0585 24.5861 38.1838 26.7966C37.9209 27.5632 37.7462 28.3573 37.6631 29.1635C37.4549 30.519 37.3716 31.885 37.1529 33.23C36.7051 35.9097 36.2782 38.5894 34.1122 40.5288C32.7104 41.6929 30.9974 42.4181 29.1867 42.6142C28.2772 42.8636 27.339 42.9933 26.396 42.9999C23.7197 42.7184 21.054 42.3639 18.409 41.8634C14.484 41.0613 10.7212 39.6057 7.27717 37.5571C5.18463 36.4077 3.29539 34.9211 1.68524 33.157C0.746708 32.0266 0.185837 30.6299 0.0815796 29.1635C-0.334952 25.7123 0.91463 22.6363 2.21629 19.5709C3.10822 17.6242 3.73178 15.5652 4.06986 13.4503C4.3251 11.0986 4.92512 8.79734 5.85055 6.62077C6.62159 4.96533 7.82298 3.5479 9.3289 2.51697C10.8348 1.48603 12.5899 0.879525 14.4103 0.760909C15.3683 0.677495 16.3263 0.489797 17.3989 0.354248ZM24.532 11.6986H24.4174C24.4174 10.583 24.4174 9.46728 24.4174 8.36203C24.4174 7.92411 24.4903 7.31936 23.8239 7.39235C23.6149 7.48396 23.4333 7.62814 23.2964 7.81085C23.1596 7.99355 23.0722 8.20855 23.0429 8.43503C22.8554 11.5631 22.7513 14.7641 22.6263 17.9338C22.6263 19.2059 22.3348 19.3936 21.0852 19.0704C20.1187 18.7939 19.1385 18.5677 18.1486 18.3926C16.3784 18.1215 14.5977 17.84 12.817 17.7357C11.5526 17.7117 10.2883 17.7919 9.03701 17.9756C8.83916 17.9756 8.49552 18.4865 8.54759 18.6325C8.61346 18.7744 8.71038 18.8995 8.83115 18.9988C8.95193 19.0981 9.09345 19.1689 9.24526 19.2059C9.72427 19.2059 10.2241 19.06 10.7031 19.0808C12.1714 19.1642 13.6397 19.2163 15.0976 19.4353C17.3364 19.7585 19.5649 20.1965 21.7933 20.6344C21.9147 20.7153 22.0136 20.8255 22.081 20.955C22.1484 21.0844 22.1819 21.2288 22.1786 21.3747C21.8282 23.2229 21.3763 25.0504 20.8249 26.8488C20.1897 28.6839 19.242 30.4252 18.5027 32.229C18.425 32.6355 18.425 33.0529 18.5027 33.4594C18.8672 33.2717 19.3982 33.1883 19.544 32.8964C21.4137 29.8367 22.653 26.4332 23.1887 22.8866C23.4386 21.3643 23.6677 21.1661 25.0943 21.6458C25.4067 21.7501 25.7295 21.8126 26.0211 21.9378C28.4995 22.9804 30.957 24.1482 33.4353 25.2326C33.5624 25.2857 33.6986 25.313 33.8363 25.313C33.9739 25.313 34.1101 25.2857 34.2372 25.2326C34.3333 25.1571 34.4079 25.0577 34.4536 24.9443C34.4993 24.8308 34.5144 24.7073 34.4975 24.5862C34.3675 24.3275 34.16 24.116 33.904 23.9814C31.2683 22.415 28.4538 21.1722 25.5212 20.2799C24.7611 20.0401 23.751 19.9775 23.9489 18.5595C24.3133 16.2239 24.3654 13.9091 24.532 11.6569V11.6986Z" fill="white"/>
</svg>
