<svg width="35" height="37" viewBox="0 0 35 37" fill="none" xmlns="http://www.w3.org/2000/svg">
<path d="M24.9817 36.0638C23.1073 35.7406 21.2329 35.3757 19.3585 35.1046C18.0375 34.8964 16.7061 34.7606 15.3702 34.6979C13.6104 34.6353 11.8401 34.6979 10.0803 34.6979C7.58645 34.7492 5.14408 33.9841 3.1242 32.5187C1.76874 31.3784 0.800776 29.8444 0.354259 28.129C-0.489217 25.564 0.354264 23.145 1.0103 20.6947C1.77047 17.9107 2.48899 15.1372 2.05163 12.1447C1.78085 10.0692 1.76338 7.96837 1.99958 5.88862C2.27032 2.97954 4.22799 1.15485 7.08123 0.258144C9.00769 -0.346611 10.7259 0.258141 12.5274 0.581372C15.3702 1.07143 18.1297 1.77004 21.1079 1.31126C23.9388 0.743686 26.8631 0.847216 29.6468 1.61362C30.6813 1.98742 31.6115 2.60367 32.3597 3.41085C33.1079 4.21803 33.6523 5.19273 33.9475 6.25356C34.7981 8.94488 34.7099 11.8457 33.6976 14.4803C33.1668 15.9441 32.7797 17.4562 32.5417 18.9951C32.4943 20.3641 32.5921 21.7341 32.8333 23.0824C33.1592 25.0047 33.3782 26.9436 33.4893 28.8902C33.5976 30.4243 33.1432 31.9453 32.2116 33.1681C31.2799 34.3908 29.9348 35.2313 28.4285 35.532C27.8742 35.6954 27.306 35.8071 26.7311 35.8657C26.1762 35.897 25.6199 35.897 25.065 35.8657L24.9817 36.0638ZM23.6071 18.943C22.2013 18.943 20.7955 18.943 19.3793 18.943C18.5775 18.943 18.338 18.6406 18.515 17.9003C18.6985 17.2206 18.7896 16.5191 18.7858 15.815C18.5671 12.3324 18.2963 8.84985 17.9944 5.38815C17.9944 5.08577 17.5466 4.80422 17.3175 4.51227C17.0988 4.85635 16.6719 5.22129 16.6927 5.55495C16.8177 7.18153 17.1613 8.78727 17.2238 10.4138C17.3175 12.885 17.2238 15.377 17.2238 17.8586C17.2238 18.4634 16.901 18.7449 16.2658 18.6406C15.6305 18.5364 14.6829 18.3695 13.8811 18.2757C11.7329 17.9298 9.65248 17.2472 7.71646 16.2529C7.37282 16.0965 6.67513 16.0235 6.55017 16.2007C6.15447 16.7117 6.55015 17.0662 7.04999 17.3373C9.77178 18.8795 12.8026 19.7949 15.9221 20.017C16.7135 20.1004 17.0884 20.3089 16.9635 21.1118C16.8845 21.7565 16.7733 22.3968 16.6302 23.0303C16.0575 25.3242 15.4952 27.6285 14.86 29.912C14.7038 30.4438 14.4018 30.9547 15.0162 31.2466C15.214 31.33 15.8388 30.8504 16.0575 30.5063C17.5154 27.6494 17.8694 24.4901 18.3693 21.3829C18.5046 20.58 18.7545 20.434 19.4106 20.4444C21.8369 20.4444 24.2528 20.4444 26.6999 20.4444C27.1217 20.4739 27.5448 20.4098 27.939 20.2568C28.2202 20.1212 28.3764 19.7041 28.5951 19.4122C28.3214 19.244 28.0225 19.1208 27.7099 19.0472C26.3562 18.9221 24.9817 18.943 23.6071 18.943Z" fill="white"/>
</svg>
