<svg width="21" height="20" viewBox="0 0 21 20" fill="none" xmlns="http://www.w3.org/2000/svg">
<path d="M0.635208 13.6267C0.864992 12.4814 1.17114 11.3527 1.55158 10.2484C2.44286 8.01931 3.45444 5.84036 4.58186 3.72119C4.99401 2.91313 5.56988 2.20006 6.27273 1.62736C6.97557 1.05466 7.78995 0.634971 8.66386 0.395091C9.59693 0.0858414 10.5914 0.00961961 11.5605 0.173177C12.5297 0.336735 13.4443 0.735075 14.2246 1.33347C16.0917 2.93827 17.4491 5.055 18.1295 7.42276C18.7752 9.31002 19.1709 11.2703 19.6707 13.2201C19.7324 13.6803 19.7324 14.1466 19.6707 14.6068C17.5881 14.4087 15.6824 14.1481 13.7247 14.0542C9.47609 13.9187 5.20664 13.7727 0.635208 13.6267ZM1.58282 15.149C1.30317 15.1135 1.0193 15.1629 0.768076 15.291C0.516852 15.419 0.30987 15.6197 0.174018 15.8671C0.0381657 16.1144 -0.0202911 16.3969 0.00624157 16.6779C0.0327743 16.9589 0.143071 17.2255 0.322807 17.4429C0.704054 18.0103 1.24369 18.4527 1.87439 18.715C2.98033 19.1761 4.14932 19.4679 5.34202 19.5804C9.24701 19.8098 13.1624 19.9141 17.0778 19.9975C17.7608 20.0248 18.4339 19.8269 18.9938 19.4344C19.564 18.9843 19.9373 18.3301 20.0352 17.6097C19.9713 17.2914 19.8371 16.9913 19.6426 16.7316C19.448 16.4718 19.1979 16.2588 18.9105 16.1083C18.172 15.7532 17.3659 15.5612 16.5467 15.5452C12.7042 15.3784 8.8513 15.2846 4.52979 15.149C3.87375 15.149 2.72828 15.1282 1.58282 15.149Z" fill="white"/>
</svg>
