<svg width="22" height="22" viewBox="0 0 22 22" fill="none" xmlns="http://www.w3.org/2000/svg">
<path d="M2.20703 11.7301C3.89129 8.58573 6.0754 5.73676 8.67369 3.29489C10.0591 1.94099 11.7994 1.00819 13.6929 0.604748C14.5601 0.440714 15.4527 0.469624 16.3075 0.689453C17.1622 0.909283 17.9583 1.31462 18.6392 1.87679C20.3782 3.21142 21.0655 5.17169 21.5966 7.24663C22.2526 9.81163 21.8986 12.3766 21.9506 14.9416C21.9062 15.8534 21.7877 16.76 21.5966 17.6526C19.3785 16.245 17.0356 15.953 14.7446 15.4004C13.1492 14.9466 11.5781 14.4106 10.0378 13.7946C8.26757 13.169 6.51814 12.4705 4.71664 11.9283C3.89003 11.7693 3.04831 11.7028 2.20703 11.7301ZM0.90537 14.0762C0.73468 14.4739 0.725076 14.9225 0.878581 15.3272C1.03209 15.7319 1.33669 16.061 1.72803 16.245C3.26498 17.1495 4.87829 17.9171 6.54937 18.5389C9.49633 19.5816 12.4954 20.3636 15.5152 21.083C16.8508 21.3273 18.2114 21.4043 19.566 21.3124C20.6073 21.3124 20.951 20.3948 21.0655 19.6233C21.128 19.2479 20.5344 18.5806 20.0762 18.3616C19.0352 17.8296 17.9289 17.4369 16.7856 17.1938C14.4157 16.797 12.0991 16.1288 9.88162 15.2023C7.65901 14.05 5.22446 13.3651 2.7277 13.1899C2.14455 13.3046 1.26984 13.1065 0.90537 14.0762Z" fill="white"/>
</svg>
