<svg width="25" height="25" viewBox="0 0 25 25" fill="none" xmlns="http://www.w3.org/2000/svg">
<path d="M2.26816 6.62891C3.38224 5.7539 4.55473 4.95608 5.77743 4.24113C7.72112 3.17748 9.75646 2.29112 11.8588 1.59274C13.6957 1.05768 15.6002 0.790775 17.5132 0.800295C18.4523 0.803682 19.373 1.06131 20.1777 1.5459C20.9825 2.03049 21.6414 2.72402 22.0846 3.55299C22.9959 4.95071 23.5502 6.5512 23.6987 8.21374C23.7924 9.87161 24.084 11.5295 24.0215 13.1769C23.9313 15.7649 23.3407 18.3109 22.2825 20.6738C20.3977 18.7553 17.3883 18.0984 16.8676 15.0016C16.6635 13.3696 15.8439 11.8774 14.5767 10.8309C13.7813 10.2254 12.8591 9.80836 11.8796 9.61096C9.09927 9.04792 6.16273 9.12091 3.7052 7.33793C3.30163 7.14545 2.86867 7.02206 2.42435 6.97295L2.26816 6.62891ZM21.0121 23.0511C21.1238 22.9297 21.2097 22.7868 21.2646 22.6311C21.3195 22.4754 21.3423 22.3102 21.3316 22.1455C21.3209 21.9807 21.2769 21.8199 21.2023 21.6727C21.1277 21.5255 21.024 21.3949 20.8975 21.289C20.5584 20.9375 20.1771 20.6293 19.7625 20.3714C18.6102 19.8374 17.604 19.0322 16.8298 18.0246C16.0555 17.0169 15.5362 15.8367 15.316 14.5846C14.8995 12.2698 13.5353 11.1854 11.2548 10.8726C10.0581 10.7897 8.86824 10.626 7.69349 10.3825C6.29802 9.95988 4.93969 9.42284 3.6323 8.77683C1.70584 7.8697 0.310462 8.67257 0.300049 10.7996C0.358489 12.5736 0.918164 14.2945 1.91411 15.7628C3.58933 18.3753 5.89126 20.526 8.60985 22.0189C10.9531 23.445 13.5477 24.4077 16.2532 24.855C18.6066 24.9697 20.0228 24.4692 21.0121 23.0511Z" fill="white"/>
</svg>
