<svg width="28" height="29" viewBox="0 0 28 29" fill="none" xmlns="http://www.w3.org/2000/svg">
<path d="M15.6785 1.03991C16.4625 1.01233 17.2441 1.14203 17.9773 1.42137C18.7105 1.70071 19.3806 2.12405 19.948 2.66649C22.5155 4.91308 24.5595 7.69647 25.9356 10.8203C26.6608 12.3123 27.129 13.9162 27.3206 15.5644C27.3919 16.4663 27.2605 17.3728 26.9362 18.2172C26.6118 19.0616 26.1027 19.8226 25.4462 20.4442C23.9571 21.7997 22.2493 22.9153 20.6456 24.1457C19.2815 25.1884 17.9486 26.2832 16.5636 27.2737C15.9123 27.8256 15.1509 28.232 14.3303 28.4657C13.5096 28.6995 12.6486 28.7552 11.8048 28.6292C10.7249 28.41 9.70316 27.9659 8.80574 27.3258C5.59181 24.9389 3.12453 21.6835 1.69346 17.9417C0.766914 15.8866 0.369516 13.6318 0.537586 11.3833C0.590131 10.616 0.834051 9.87411 1.24702 9.22563C1.65998 8.57714 2.2288 8.04276 2.90141 7.67134C4.34885 6.80592 5.92126 6.12818 7.37912 5.26275C9.11814 4.22007 10.7426 3.00013 12.4921 1.99916C13.4977 1.51186 14.5428 1.11071 15.616 0.800049L15.6785 1.03991ZM11.232 8.87045C10.8948 8.71668 10.5467 8.58774 10.1907 8.48466C9.14938 8.2657 8.04557 8.05715 6.96258 7.87989C6.44192 7.8069 6.08787 8.10925 6.23366 8.63059C6.31696 8.88083 6.72309 9.09978 7.02508 9.20405C7.32706 9.30832 7.60822 9.20405 7.89979 9.20405C8.68079 9.26556 9.44186 9.48155 10.139 9.8395C10.8361 10.1974 11.4553 10.6902 11.961 11.2894C13.3876 13.2809 14.6684 15.3663 15.9805 17.4413C16.2459 17.8414 16.3971 18.3064 16.4179 18.7863C16.4179 19.9854 16.1783 21.174 16.1263 22.3731C16.1263 22.8319 16.1992 23.6243 16.4283 23.6973C17.1051 23.9163 17.3759 23.3324 17.4696 22.7381C17.5633 22.1438 17.7091 21.3305 17.8132 20.6527C17.8653 20.2461 17.8861 19.8394 17.9382 19.3494C18.3528 19.4659 18.7734 19.5598 19.1982 19.6309C20.1893 19.7595 21.1875 19.8256 22.1868 19.829C22.4367 19.829 22.6762 19.2764 22.9158 18.9844C22.6771 18.7779 22.4015 18.6187 22.1035 18.5152C21.5308 18.4527 20.9164 18.5778 20.3437 18.5152C19.7393 18.494 19.1467 18.3412 18.6072 18.0675C18.0678 17.7938 17.5943 17.4058 17.2197 16.9304C16.1784 15.4393 15.2203 13.9483 14.2311 12.4468C13.2418 10.9454 12.1484 9.3188 13.044 7.23343C13.2845 6.66497 13.4187 6.05703 13.4396 5.43999C13.4396 5.10633 13.2314 4.55371 12.9815 4.45987C12.5025 4.27219 12.1901 4.58504 12.0755 5.15851C11.8985 6.33674 11.5653 7.55667 11.232 8.87045Z" fill="white"/>
</svg>
