<svg width="29" height="29" viewBox="0 0 29 29" fill="none" xmlns="http://www.w3.org/2000/svg">
<path d="M29 16.1675C28.823 11.7778 27.1048 7.90944 24.8972 4.21835C24.4182 3.40506 23.8038 2.6752 23.2727 1.89319C22.7617 1.02248 21.9286 0.388561 20.9539 0.128954C19.9792 -0.130652 18.9415 0.00496704 18.066 0.506404C16.3999 1.22585 14.7859 2.09127 13.1926 2.97755C11.8339 3.76035 10.3027 4.19384 8.73575 4.23922C7.57465 4.19304 6.41829 4.41216 5.35435 4.88001C4.29042 5.34786 3.34686 6.05217 2.59519 6.93947C1.84352 7.82677 1.30348 8.87378 1.01603 10.0011C0.728592 11.1285 0.701305 12.3066 0.936205 13.446C1.5149 16.7338 2.71669 19.8802 4.47672 22.7155C5.78879 24.8738 7.24664 26.9592 9.57922 28.1479C10.5926 28.689 11.7343 28.9429 12.8812 28.8822C14.0281 28.8216 15.1367 28.4487 16.0875 27.8038C17.9515 26.6568 19.7009 25.3431 21.5857 24.2483C22.8353 23.508 24.2515 23.0596 25.5844 22.434C26.6889 21.9578 27.6122 21.1402 28.2192 20.1008C28.8263 19.0615 29.0853 17.8549 28.9583 16.6575L29 16.1675ZM13.5154 7.41938C13.5779 7.29426 13.63 7.21082 13.6612 7.1274C13.9751 6.20601 14.3437 5.30426 14.7651 4.4269C14.9047 4.27575 15.0795 4.16142 15.2739 4.09412C15.4682 4.02682 15.6762 4.00864 15.8792 4.04111C16.5145 4.26007 16.0979 4.70842 15.8792 5.08379C15.4181 5.81409 15.1554 6.65226 15.1171 7.51542C15.0787 8.37858 15.2661 9.2368 15.6606 10.0052C16.7019 12.2783 17.6183 14.6243 18.6388 16.9286C18.9593 17.7359 19.474 18.4514 20.137 19.0116C20.8001 19.5719 21.591 19.9595 22.4396 20.1401C23.0332 20.2652 23.7725 20.2235 23.5643 21.0472C23.5018 21.3079 22.6687 21.3809 22.1793 21.506C22.0439 21.506 21.8669 21.4226 21.7211 21.36L19.1907 20.2443C19.1074 20.7136 19.0657 21.1515 18.9616 21.579C18.7221 22.5174 18.4826 23.4558 18.2118 24.3838C18.0661 24.853 17.7849 25.2701 17.1705 24.9885C16.5561 24.707 16.754 24.2483 16.9518 23.7374C17.8518 21.8419 17.9861 19.6716 17.3267 17.6794C16.4208 15.3438 15.4315 13.0394 14.3173 10.7977C13.777 9.87033 13.071 9.05035 12.2346 8.37863C11.4049 7.74429 10.5315 7.16942 9.62088 6.65825C9.19394 6.38715 8.91279 6.0639 9.2356 5.53213C9.55841 5.00037 9.90205 5.18803 10.2769 5.4487C11.4016 6.10559 12.4533 6.75207 13.5154 7.41938Z" fill="white"/>
</svg>
