<svg width="45" height="45" viewBox="0 0 45 45" fill="none" xmlns="http://www.w3.org/2000/svg">
<path d="M44.3586 27.8399C44.2946 29.1411 43.9429 30.4119 43.3288 31.5605C42.7147 32.7091 41.8536 33.7069 40.8076 34.4818C38.2564 36.4733 35.2782 37.6099 32.3729 38.9653C29.9362 40.0706 27.5515 41.2905 25.1565 42.4479C22.9926 43.5891 20.6181 44.274 18.1796 44.4602C13.858 44.6583 10.5154 42.7816 9.21371 38.1208C8.59932 35.8999 8.32859 33.5746 7.54759 31.4267C6.88514 29.7979 5.99074 28.2737 4.8922 26.9015C3.21566 24.6702 1.45581 22.5118 0.820599 19.7174C-0.0541168 15.9429 0.820599 12.9296 3.94459 10.6565C6.83948 8.57115 10.1926 7.45548 13.4832 6.28768C16.4301 5.245 19.2729 3.93122 22.1158 2.63829C24.2073 1.58004 26.4592 0.875415 28.7803 0.552931C29.6871 0.420101 30.6129 0.538414 31.4573 0.894997C32.3017 1.25158 33.0325 1.83283 33.5704 2.57574C35.082 4.73663 36.1443 7.17972 36.6944 9.75982C37.7294 13.4823 39.3764 17.0061 41.5678 20.1866C43.1155 22.4676 44.0743 25.097 44.3586 27.8399ZM19.3667 22.6265C19.5483 22.8678 19.7119 23.1222 19.8561 23.3877C21.8442 27.5865 24.41 31.4858 27.4786 34.9719C27.6452 35.17 28.093 35.1387 28.4158 35.2117C28.4158 34.8676 28.6553 34.4296 28.5095 34.169C27.9931 33.4142 27.4333 32.69 26.833 32.0002C24.5452 29.1562 22.6244 26.0348 21.1161 22.7099C21.0392 22.601 20.9903 22.4749 20.9735 22.3426C20.9568 22.2104 20.9727 22.076 21.0201 21.9514C21.0674 21.8267 21.1446 21.7157 21.2449 21.628C21.3451 21.5402 21.4654 21.4785 21.5951 21.4482C24.9983 19.9133 28.5808 18.8134 32.2583 18.1743C32.7686 18.0909 33.1851 18.0387 33.1435 17.4026C33.1018 16.7666 32.6228 16.6832 32.1021 16.7666C30.6679 16.9821 29.2489 17.2886 27.8535 17.6842C25.5418 18.4349 23.2717 19.342 21.012 20.2283C20.3559 20.4786 19.9706 20.2284 19.8249 19.6757C19.1167 16.6728 18.4399 13.6699 17.7422 10.6565C17.6381 10.1665 17.6901 9.61384 16.9612 9.68683C16.2323 9.75982 16.2948 10.3124 16.3468 10.7921C16.4385 11.7284 16.588 12.6582 16.7946 13.576C17.3673 15.8282 18.0129 18.0596 18.6273 20.3013C18.7251 20.5396 18.7313 20.8057 18.6448 21.0483C18.5583 21.2908 18.3851 21.4928 18.1587 21.6151C16.6072 22.5744 15.0347 23.5649 13.5977 24.6388C12.5467 25.4168 11.5451 26.2596 10.5987 27.1622C10.2342 27.5063 9.67189 28.0588 10.3175 28.5489C10.5258 28.7053 11.1714 28.2883 11.6192 28.1214C11.7025 28.1214 11.7441 27.9754 11.817 27.9024C14.0525 25.7366 16.6187 23.9415 19.4187 22.5848L19.3667 22.6265Z" fill="white"/>
</svg>
