<svg width="44" height="43" viewBox="0 0 44 43" fill="none" xmlns="http://www.w3.org/2000/svg">
<path d="M25.8518 0.425049C30.2254 0.48761 33.6826 1.90567 36.2651 5.12755C37.4946 6.75208 38.2482 8.68722 38.4415 10.7163C38.841 14.2736 39.8152 17.7423 41.326 20.9868C42.3877 23.0487 43.0016 25.3122 43.1275 27.6286C43.1898 29.0034 42.9238 30.3733 42.3515 31.6245C41.7792 32.8757 40.9171 33.9723 39.8369 34.8231C36.9118 37.1858 33.6048 39.0301 30.0588 40.2764C28.072 41.0678 26.0287 41.7091 23.9462 42.1949C21.3702 42.7522 18.7403 43.0215 16.105 42.9978C13.6775 43.0462 11.2983 42.3155 9.31552 40.9124C7.85941 39.7745 6.86131 38.1495 6.50394 36.335C5.94162 33.77 5.73335 31.1216 5.24392 28.5462C4.95657 27.3059 4.5557 26.0947 4.0464 24.9281C3.25499 22.8948 2.35944 20.8929 1.59927 18.8492C1.04157 17.4878 0.770371 16.0259 0.802622 14.5547C0.834874 13.0836 1.16989 11.6349 1.78672 10.2993C2.41276 9.14713 3.31889 8.17166 4.42128 7.46315C7.69341 5.18829 11.3271 3.48546 15.1678 2.42701C17.0734 1.9161 18.9686 1.32178 20.9055 0.967264C22.6133 0.612752 24.394 0.560597 25.8518 0.425049ZM19.6039 11.0709H19.7809C19.7809 10.122 19.7809 9.17319 19.7809 8.22435C19.7809 7.90112 19.4789 7.59872 19.3123 7.28591C19.0711 7.52803 18.8738 7.81026 18.7291 8.12005C18.633 8.62846 18.5945 9.14613 18.6146 9.66319C18.6146 11.1125 18.5417 12.5723 18.6146 14.0217C18.6875 15.471 18.9582 16.8577 19.1248 18.2758C19.1977 18.8492 19.3435 19.527 18.6354 19.8085C16.5528 20.6322 14.4701 21.3204 12.4603 22.1963C11.1645 22.8046 9.91196 23.5013 8.71155 24.2816C8.5137 24.4067 8.52411 24.8759 8.44081 25.1887C8.78445 25.1887 9.20098 25.3556 9.48214 25.1887C11.117 24.3859 12.679 23.437 14.3451 22.6967C15.7057 22.1543 17.0964 21.6913 18.5105 21.31C18.9895 21.164 19.4164 21.1119 19.6039 21.8626C20.2182 24.365 20.8222 26.8884 21.624 29.3387C22.1301 30.6454 22.776 31.8935 23.5505 33.061C23.6963 33.3008 24.2586 33.28 24.5918 33.3738C24.6372 33.0281 24.6616 32.6799 24.6647 32.3312C24.6647 32.1852 24.4981 32.0496 24.4148 31.9141C22.5377 28.6222 21.3341 24.9891 20.8743 21.2266C20.8743 21.018 21.0305 20.5905 21.1867 20.5592C22.53 20.236 23.8941 19.9232 25.2687 19.7042C26.6432 19.4853 28.0386 19.3185 29.434 19.2142C30.8294 19.1099 32.0894 19.2142 33.4119 19.1099C33.8083 19.0108 34.185 18.8451 34.5261 18.6199C34.2345 18.3488 33.9846 17.9421 33.641 17.8483C31.1314 17.1497 28.653 17.9108 26.1642 18.0881C24.6276 18.3101 23.1074 18.6341 21.6136 19.0578C20.9576 19.1933 20.4786 19.0578 20.4057 18.2236C20.1662 15.8463 19.8954 13.4586 19.6351 11.0709H19.6039Z" fill="white"/>
</svg>
