<svg width="35" height="36" viewBox="0 0 35 36" fill="none" xmlns="http://www.w3.org/2000/svg">
<path d="M22.8202 34.5388C20.4117 34.6012 18.0089 34.8067 15.6247 35.154C13.3392 35.6436 11.0055 35.8709 8.66859 35.8317C3.92013 35.6649 0.952335 32.2449 1.61879 27.3755C1.9416 25.0295 2.23318 22.673 2.52475 20.3166C2.58433 18.5279 2.25014 16.748 1.5459 15.1032C0.693806 12.9738 0.354894 10.6733 0.556642 8.38827C0.983587 5.58346 2.52474 2.1322 6.07567 1.4336C8.7476 0.989313 11.4702 0.940115 14.1564 1.28761C15.7356 1.52048 17.3415 1.5029 18.9153 1.23549C21.2998 0.593294 23.7411 0.184712 26.2046 0.015533C27.8845 -0.102098 29.5425 0.451951 30.8151 1.55623C32.0878 2.66052 32.8714 4.22498 32.994 5.90672C33.4106 8.92007 32.6816 11.8292 32.8482 14.8008C32.9878 16.6454 33.3371 18.468 33.8896 20.2332C34.7132 22.4355 35.0506 24.7903 34.8788 27.1357C34.6293 28.6835 33.9703 30.1361 32.9705 31.3426C31.9706 32.5491 30.6664 33.4655 29.1932 33.9966C27.1235 34.5864 24.9596 34.7705 22.8202 34.5388ZM16.2703 13.5183H16.4161C16.4161 15.0615 16.4161 16.5942 16.4161 18.1374C16.4161 18.7213 16.2182 18.9507 15.6247 18.9403C14.0835 18.9403 12.5007 18.9403 11.0116 18.9403C9.66826 18.9403 8.32495 18.9403 6.99205 18.9403C6.73172 18.9403 6.47138 19.2113 6.21105 19.3573C6.39849 19.6076 6.53387 19.9725 6.77338 20.0663C7.26419 20.2279 7.77706 20.3123 8.29371 20.3166C10.6471 20.3166 13.0005 20.3896 15.3539 20.3166C16.3952 20.3166 16.6764 20.7441 16.8222 21.6408C17.1762 23.7783 17.5511 25.9054 18.0301 28.022C18.2806 28.9868 18.6295 29.9232 19.0715 30.8164C19.1652 31.0145 19.6338 31.2648 19.7379 31.1918C19.9737 30.9985 20.1355 30.7296 20.1961 30.4306C20.2204 30.1703 20.166 29.9088 20.0399 29.6799C18.8868 26.8058 18.1843 23.7705 17.9572 20.6815C17.9774 20.5317 18.0347 20.3893 18.1238 20.2673C18.2129 20.1453 18.3311 20.0476 18.4675 19.9829C19.3239 19.8009 20.1894 19.6651 21.0604 19.5763C23.2847 19.279 25.4348 18.5719 27.4021 17.4909C27.9228 17.2198 28.7662 17.0113 28.3705 16.1876C27.9748 15.3638 27.3292 16.052 26.819 16.2814C24.264 17.5784 21.4721 18.3412 18.6133 18.5232C18.0614 18.5232 17.7386 18.4293 17.7594 17.7933C17.8739 14.1335 17.9677 10.4945 18.0718 6.83469C18.0718 6.24036 18.1759 5.65645 18.1447 5.07255C18.1447 4.83273 17.8948 4.60335 17.7594 4.36353C17.5065 4.46347 17.2737 4.6083 17.0721 4.79104C16.898 5.02796 16.7967 5.3106 16.7806 5.60433C16.6348 8.25274 16.4577 10.8907 16.2703 13.5183Z" fill="white"/>
</svg>
