<svg width="32" height="26" viewBox="0 0 32 26" fill="none" xmlns="http://www.w3.org/2000/svg">
<path d="M1.90328 10.7629C2.58149 10.9726 3.27934 11.1124 3.98594 11.18C7.10993 11.0861 10.2339 11.0132 13.2642 10.7421C15.7425 10.5231 18.2001 10.0018 20.6784 9.69938C22.1467 9.49085 23.6671 9.51169 25.1145 9.19889C27.3293 8.86593 29.4543 8.0893 31.3625 6.91541C31.425 6.91541 31.5395 6.91542 31.8415 6.86329C31.2375 8.94865 30.7272 10.9193 30.0712 12.8587C29.1195 15.7193 27.6629 18.3856 25.7705 20.7309C24.2395 22.7062 22.1089 24.1297 19.6996 24.787C15.7321 25.8297 12.4103 24.4533 9.34878 22.0968C5.90204 19.368 3.30463 15.711 1.86164 11.5554C1.81652 11.4316 1.79189 11.3013 1.78874 11.1696C1.74708 11.0966 1.78874 11.034 1.90328 10.7629ZM13.7536 0.951273C11.0455 1.2151 8.39391 1.8938 5.89157 2.96364C4.10129 3.6128 2.52107 4.73735 1.32014 6.21683C0.768238 6.96756 0.799482 8.52113 1.48676 8.8965C2.16291 9.35074 2.93762 9.63674 3.74644 9.73066C6.41224 9.73066 9.08846 9.58468 11.7543 9.42828C12.9205 9.36572 14.0764 9.15716 15.2427 9.02162C16.7526 8.85479 18.2834 8.74011 19.7933 8.52115C22.0482 8.26854 24.2871 7.88911 26.4995 7.38463C28.1304 6.95413 29.6762 6.24895 31.0709 5.29927C31.3865 5.06568 31.6369 4.75482 31.798 4.3965C31.9592 4.03818 32.0257 3.64441 31.9912 3.25295C31.9567 2.86149 31.8224 2.48547 31.601 2.16095C31.3797 1.83642 31.0788 1.57426 30.7273 1.39962C28.84 0.588604 26.8036 0.183656 24.75 0.210978C22.178 0.148418 19.5955 0.367391 16.4194 0.482086C15.8675 0.617634 14.7845 0.85742 13.7015 0.972115L13.7536 0.951273Z" fill="white"/>
</svg>
