<svg width="24" height="25" viewBox="0 0 24 25" fill="none" xmlns="http://www.w3.org/2000/svg">
<path d="M20.1421 3.85884C20.819 5.80865 21.5375 7.71676 22.1206 9.65614C22.6364 11.1599 22.9856 12.7159 23.162 14.2961C23.3286 16.8507 23.995 19.5095 22.5164 21.9389C22.0549 22.6268 21.4364 23.1947 20.712 23.5955C19.9876 23.9962 19.1783 24.2183 18.351 24.2432C14.4565 24.6812 11.1659 23.0233 8.00023 21.1152C6.28204 20.0725 4.66799 18.8317 3.01227 17.6744C2.91445 17.6027 2.82987 17.5145 2.76235 17.4137C4.66798 16.1521 6.60485 14.9634 8.42718 13.6288C11.6067 11.2931 14.7307 8.90193 17.7991 6.4551C18.645 5.65067 19.4283 4.78273 20.1421 3.85884ZM16.9036 0.532682C15.8874 0.752374 14.9038 1.10285 13.9775 1.57536C11.4098 2.99091 8.91761 4.53967 6.51114 6.21531C3.78286 8.1964 1.30449 10.532 0.190265 13.879C-0.0284136 14.515 -0.153369 15.0677 0.356882 15.5994C0.582351 15.8141 0.869318 15.9527 1.17749 15.9957C1.48566 16.0387 1.79955 15.984 2.07507 15.8392C4.6055 14.9738 6.59443 13.2534 8.67709 11.6685C10.0829 10.6258 11.5407 9.58315 12.9153 8.54047C14.6751 7.14327 16.435 5.72523 18.1219 4.21335C18.5251 3.70919 18.8354 3.13723 19.0383 2.52421C18.9654 1.3147 17.7679 0.303292 16.9036 0.532682Z" fill="white"/>
</svg>
