<svg width="24" height="24" viewBox="0 0 24 24" fill="none" xmlns="http://www.w3.org/2000/svg">
<path d="M15.2582 11.1816C15.2582 13.6945 14.5814 14.7788 12.3737 15.5296C9.64086 16.4299 7.12113 17.8813 4.9699 19.7941C4.48868 20.2311 3.89872 20.53 3.26212 20.6596C1.57517 20.9515 0.460945 19.9609 0.138133 18.1988C-0.244103 15.7285 0.171819 13.2005 1.32525 10.9835C3.23993 6.78558 6.48741 3.33955 10.5618 1.18226C11.1943 0.777434 11.9168 0.535174 12.6652 0.47697C13.4136 0.418766 14.1648 0.546441 14.8521 0.848628C15.1936 0.970129 15.4877 1.19724 15.6917 1.49715C15.8958 1.79707 15.9992 2.1542 15.9871 2.51689C16.0011 3.39316 15.8925 4.2671 15.6643 5.11319C14.9377 7.05237 14.7965 9.16268 15.2582 11.1816ZM5.35519 22.2444C6.91718 22.6719 8.47917 23.1411 10.0412 23.4957C12.7774 24.1682 15.6355 24.1682 18.3718 23.4957C23.3077 22.2027 24.9113 17.5628 23.3285 13.2356C22.6048 11.3187 21.7272 9.46368 20.7044 7.68861C19.7745 6.27696 18.7699 4.91606 17.6949 3.61173C17.4971 4.1852 17.3513 4.50843 17.268 4.85252C16.8515 6.66678 16.2267 8.39763 16.5911 10.3892C17.2367 13.5172 15.9038 15.7694 12.759 16.8433C9.71939 17.9235 6.94872 19.6485 4.63667 21.9004C4.86746 22.0325 5.10761 22.1474 5.35519 22.2444Z" fill="white"/>
</svg>
