<svg width="35" height="34" viewBox="0 0 35 34" fill="none" xmlns="http://www.w3.org/2000/svg">
<path d="M11.4466 0C13.8367 0.384782 16.2041 0.89995 18.5381 1.54318C21.9224 2.65885 25.2442 3.99347 28.5036 5.4428C30.6017 6.24427 32.3646 7.73733 33.502 9.67608C33.9288 10.5602 34.1418 11.5324 34.1237 12.5142C34.1056 13.496 33.8569 14.4597 33.3979 15.3274C32.7627 16.7559 32.0545 18.1635 31.3673 19.5712C30.7903 20.8484 30.4684 22.2262 30.4197 23.6272C30.4404 25.8112 30.0004 27.9751 29.1284 29.9771C28.6444 30.8476 27.9855 31.6083 27.1934 32.2113C26.4012 32.8142 25.4929 33.2464 24.5257 33.4805C21.9224 34.3251 19.5378 33.5535 17.1219 32.7715C14.9663 32.0729 12.8316 31.2492 10.624 30.7695C8.57959 30.4451 6.57103 29.9248 4.62593 29.216C1.17913 27.7145 -1.14303 24.5656 0.585572 20.4783C1.37338 18.6191 2.31016 16.8268 3.38675 15.1189C4.70068 12.8617 5.44089 10.316 5.54231 7.70543C5.59686 5.7862 6.03225 3.89701 6.82314 2.14792C7.163 1.553 7.65903 1.06261 8.25746 0.729922C8.85589 0.397233 9.53387 0.234949 10.2179 0.26067C10.6032 0.26067 10.9989 0.26067 11.3946 0.26067L11.4466 0ZM16.0389 17.7256C15.4662 17.5605 14.906 17.3549 14.3624 17.1104C12.2797 16.0052 10.1137 14.8478 7.97902 13.7426C7.7291 13.6174 7.35421 13.7426 7.04181 13.7426C7.03445 14.095 7.08009 14.4465 7.17719 14.7853C7.26049 14.9834 7.5729 15.1085 7.80199 15.2232C10.2491 16.4327 12.7067 17.6213 15.0913 18.8621C15.2331 18.9556 15.3499 19.0824 15.4316 19.2314C15.5133 19.3804 15.5573 19.5471 15.5599 19.7171C15.4245 20.7598 15.185 21.8025 14.9872 22.7722C14.5459 24.8801 14.451 27.0461 14.706 29.1847C14.7217 29.2976 14.7674 29.4042 14.8384 29.4934C14.9094 29.5826 15.003 29.651 15.1095 29.6915C15.216 29.732 15.3313 29.7431 15.4435 29.7237C15.5558 29.7042 15.6607 29.6549 15.7473 29.5809C15.9009 29.3393 15.9671 29.0522 15.9348 28.7676C15.8151 25.8372 16.1381 22.9055 16.8928 20.0716C16.958 19.95 17.0538 19.8476 17.1707 19.7744C17.2876 19.7013 17.4215 19.6599 17.5592 19.6546C19.9751 20.0925 22.3806 20.593 24.7965 21.0413C25.309 21.1402 25.8356 21.1402 26.3481 21.0413C26.5103 20.9878 26.6569 20.8951 26.7749 20.7715C26.893 20.6478 26.9788 20.497 27.0249 20.3323C27.0249 20.1759 26.65 19.738 26.3897 19.6963C23.776 19.2583 21.1831 18.8726 18.5381 18.4555C17.6946 18.3199 17.4968 17.8924 17.7363 17.0687C18.2882 15.5047 18.7776 13.9407 19.4649 12.4079C20.1522 10.8752 20.7874 9.56139 21.4434 8.14334C21.6621 7.65328 21.8808 7.04853 21.2247 6.80871C21.006 6.7253 20.4541 7.1528 20.2563 7.4656C19.7542 8.26793 19.3221 9.11218 18.965 9.98891C18.0278 12.5435 17.0594 15.0876 16.0389 17.7256Z" fill="white"/>
</svg>
