<svg width="36" height="35" viewBox="0 0 36 35" fill="none" xmlns="http://www.w3.org/2000/svg">
<path d="M22.8523 34.2C20.9258 33.9081 18.8119 33.4806 16.6876 33.2825C14.1259 33.0427 11.4809 33.0635 8.96091 32.855C6.6804 32.6673 4.45196 32.2398 2.71294 30.5089C0.515737 28.3402 0.0471473 25.6709 0.411612 22.7514C0.533115 21.1935 0.766277 19.6464 1.1093 18.1219C2.15063 14.3578 1.5883 10.4582 2.25475 6.65243C2.765 3.70164 3.98336 1.1992 7.13859 0.260786C7.96332 0.0837664 8.80473 -0.00362951 9.6482 0.000115421C11.7934 0.0131104 13.923 0.364999 15.9586 1.0428C17.6856 1.48942 19.4434 1.80658 21.2174 1.99164C23.6853 2.23146 26.1741 2.13762 28.6316 2.45042C31.287 2.79451 33.4321 3.55565 34.2756 6.93394C35.0771 10.0301 35.4278 13.2258 35.317 16.4223C35.2103 18.4373 34.9527 20.4414 34.5464 22.4178C34.18 24.4172 33.6649 26.3864 33.0052 28.3089C32.5592 29.7549 31.6968 31.0369 30.526 31.9941C29.3552 32.9512 27.9282 33.5409 26.424 33.6891L22.8523 34.2ZM16.0107 21.3542C16.1669 22.449 16.2815 23.5543 16.5001 24.6387C16.8125 26.1818 17.2187 27.7146 17.5935 29.2473C17.7081 29.7582 17.9684 30.1023 18.562 29.8625C19.1555 29.6227 18.9681 29.2786 18.8119 28.8198C17.8852 26.0644 17.4585 23.1653 17.5519 20.2594C17.5519 19.9362 17.8747 19.4044 18.1142 19.3627C19.4575 19.1542 20.8425 19.1437 22.1858 18.9143C24.1539 18.5702 26.1116 18.1219 28.0485 17.6214C28.3817 17.538 28.5796 16.9541 28.8503 16.5787C28.4442 16.5058 28.0485 16.4119 27.6424 16.3493C27.5444 16.3401 27.446 16.362 27.3612 16.4119C24.9557 17.4546 22.3628 17.5589 19.8324 17.8508C17.302 18.1428 17.1978 17.8508 17.6039 15.3692C18.0101 12.8876 18.3225 10.6146 18.6973 8.23729C18.7911 7.60125 19.0306 6.97564 19.0722 6.3396C19.0722 6.0268 18.8223 5.69314 18.6765 5.35948C18.3745 5.60972 17.8747 5.81827 17.8018 6.12065C17.3124 8.25814 16.8542 10.4165 16.5105 12.5853C16.271 14.0659 16.2502 15.5673 16.0836 17.0584C16.0836 17.2773 15.7816 17.6423 15.6358 17.6319C14.3969 17.6146 13.1596 17.5345 11.9287 17.392C10.7104 17.2356 9.51283 16.9333 8.30489 16.7143C7.51348 16.5787 6.71165 16.4328 5.90983 16.3702C5.65991 16.3702 5.38916 16.6309 5.12883 16.7664C5.32668 17.0688 5.46205 17.4859 5.74321 17.6319C6.1409 17.7759 6.55956 17.8534 6.9824 17.8612C9.22125 18.2158 11.4497 18.7058 13.7094 18.9039C15.9691 19.102 16.1565 18.9248 16.0107 21.3542Z" fill="white"/>
</svg>
