<svg width="32" height="26" viewBox="0 0 32 26" fill="none" xmlns="http://www.w3.org/2000/svg">
<path d="M0.437862 7.54854C1.8749 8.06988 3.18695 8.65378 4.55109 9.01872C6.20684 9.47496 7.89037 9.82325 9.59112 10.0614C12.2257 10.4159 14.9228 10.4263 17.5261 10.9581C21.0556 11.5734 24.6417 11.8007 28.2205 11.6359C28.9904 11.562 29.753 11.426 30.501 11.2292C30.3032 11.8444 30.199 12.2719 30.0324 12.6681C28.5621 16.3986 26.1856 19.7029 23.118 22.2816C20.7478 24.4294 17.6612 25.6121 14.4646 25.5973C12.099 25.5169 9.84094 24.5882 8.10203 22.9802C5.24077 20.3613 3.13044 17.0243 1.98943 13.3146C1.40629 11.5941 0.948113 9.84243 0.437862 8.10115C0.413378 7.91776 0.413378 7.73193 0.437862 7.54854ZM2.39557 1.52184C1.83951 1.59258 1.31759 1.82934 0.897829 2.20129C0.478067 2.57325 0.179904 3.06316 0.0421517 3.6072C-0.176527 4.64988 0.469094 5.60914 1.66662 6.3703C3.50537 7.41439 5.54086 8.0642 7.64384 8.27842C8.76848 8.46611 9.89313 8.57037 11.0178 8.72677C13.6627 9.10214 16.2869 9.52963 18.9318 9.83201C21.0286 10.1062 23.1387 10.2663 25.2527 10.3116C26.8051 10.3289 28.3529 10.1396 29.8554 9.74861C30.1809 9.67602 30.4802 9.5154 30.7208 9.28426C30.9614 9.05312 31.134 8.76031 31.22 8.43772C31.3059 8.11512 31.3018 7.77511 31.208 7.4547C31.1143 7.13429 30.9346 6.84578 30.6885 6.62057C29.6333 5.51835 28.4058 4.59563 27.0542 3.88871C24.1872 2.48798 21.0816 1.64248 17.9009 1.39672C15.0165 1.14648 12.132 0.823231 8.78931 0.5C6.92533 0.771097 4.64484 1.04221 2.39557 1.52184Z" fill="white"/>
</svg>
