<svg width="25" height="24" viewBox="0 0 25 24" fill="none" xmlns="http://www.w3.org/2000/svg">
<path d="M21.6252 16.981C19.8341 18.201 18.0847 19.5148 16.2207 20.62C14.575 21.6355 12.8304 22.4809 11.014 23.1433C8.25452 24.0713 5.45333 24.3737 2.79794 22.5907C1.09016 21.4437 0.881898 19.7025 0.819418 17.9403C0.717729 15.5646 1.01698 13.1887 1.70455 10.9127C2.39877 8.70912 3.09299 6.51602 3.78721 4.33334C3.91707 4.00993 4.06302 3.69325 4.22455 3.38449C6.49465 6.51254 9.59781 8.48321 12.5552 10.5894C15.5126 12.6956 18.0743 15.2919 21.5211 16.6265L21.6252 16.981ZM5.52622 2.50864C6.35016 4.07902 7.57095 5.40563 9.06676 6.35614C11.3993 8.18083 13.784 9.95337 16.1686 11.7051C18.0094 13.2682 20.096 14.5155 22.3437 15.3962C22.8323 15.506 23.3443 15.4199 23.7703 15.1563C24.0119 14.9909 24.1866 14.7446 24.263 14.4617C24.3393 14.1788 24.3123 13.8779 24.1869 13.6132C23.5267 11.7317 22.46 10.0192 21.0629 8.5979C18.2096 5.46985 14.6066 3.33236 10.9411 1.29913C9.77241 0.765035 8.55999 0.332448 7.3173 0.006181C7.00858 -0.0195531 6.69847 0.0353584 6.41726 0.165504C6.13605 0.29565 5.89335 0.496601 5.71288 0.748735C5.53242 1.00087 5.42038 1.29557 5.38766 1.60403C5.35494 1.91249 5.40267 2.22418 5.52622 2.50864Z" fill="white"/>
</svg>
