<svg width="24" height="24" viewBox="0 0 24 24" fill="none" xmlns="http://www.w3.org/2000/svg">
<path d="M21.1512 20.8823C20.4081 20.687 19.7037 20.3662 19.0685 19.9335C16.644 17.797 13.8092 16.1791 10.7379 15.1788C10.111 14.9746 9.56804 14.5705 9.19198 14.0283C8.81593 13.486 8.62742 12.8355 8.65524 12.1759C8.65524 10.6432 8.7073 9.10003 8.65524 7.57772C8.65524 6.80613 8.322 6.0554 8.21787 5.29424C8.04684 4.28036 7.9425 3.25633 7.90548 2.22876C7.99141 1.72631 8.25814 1.27277 8.6553 0.953854C9.05247 0.634942 9.55253 0.472749 10.061 0.497904C11.3776 0.593837 12.6657 0.929498 13.8619 1.48843C18.5865 4.13553 22.0832 8.5355 23.5983 13.7399C24.2476 15.6826 24.1055 17.8032 23.2026 19.6415C22.7028 20.6738 22.5362 20.6842 21.1512 20.8823ZM5.96859 4.06386C4.07205 6.18642 2.51266 8.58833 1.34509 11.1854C0.303762 13.5836 -0.466826 16.0234 0.397477 18.7344C0.867507 20.1531 1.75603 21.3959 2.94582 22.2987C4.13561 23.2015 5.57079 23.722 7.06201 23.7914C10.11 24.2307 13.2178 23.9741 16.1528 23.0407C17.1941 22.6444 18.3292 22.3838 19.6204 21.998C18.2949 20.8739 16.904 19.8294 15.4551 18.8699C13.8161 17.999 12.1221 17.2363 10.3838 16.5865C9.4808 16.208 8.70582 15.5769 8.15177 14.7688C7.59771 13.9607 7.28806 13.0098 7.25986 12.03C7.25986 10.5285 7.38482 9.0166 7.25986 7.52557C7.05296 6.2346 6.75721 4.95949 6.37473 3.70935C6.1977 3.86575 6.04149 3.94916 5.96859 4.06386Z" fill="white"/>
</svg>
