<svg width="35" height="34" viewBox="0 0 35 34" fill="none" xmlns="http://www.w3.org/2000/svg">
<path d="M23.0379 0C23.7876 0.135549 24.6728 0.260683 25.5475 0.469219C26.0719 0.605361 26.5465 0.888692 26.9154 1.28585C27.2844 1.68301 27.5324 2.17745 27.6301 2.71098C28.1316 4.25153 28.4634 5.84238 28.6194 7.45517C28.6758 10.4655 29.6255 13.391 31.3477 15.8592C32.6922 17.7961 33.6342 19.9839 34.1176 22.2925C34.2488 23.173 34.1648 24.0721 33.8728 24.913C33.5808 25.7538 33.0895 26.5111 32.4411 27.1202C31.1205 28.5416 29.3662 29.4841 27.4531 29.7999C23.4806 30.6 19.5721 31.6907 15.759 33.0634C14.4181 33.6266 12.9621 33.8599 11.5127 33.7438C10.0633 33.6277 8.66273 33.1656 7.42836 32.3961C6.5238 31.8338 5.7598 31.0716 5.19485 30.1679C4.62989 29.2643 4.27897 28.2431 4.16899 27.1827C4.00508 25.0843 3.73051 22.996 3.34637 20.9266C2.86659 19.5776 2.28524 18.267 1.60733 17.0061C0.922308 15.568 0.401822 14.0569 0.0557642 12.5017C-0.0633399 11.7193 0.00899477 10.9197 0.266553 10.1714C0.524112 9.42317 0.959179 8.74868 1.53443 8.2059C4.32966 5.68984 7.67506 3.86499 11.3021 2.87781C13.6972 2.11665 16.0818 1.27208 18.5185 0.625615C20.0108 0.324784 21.5201 0.115849 23.0379 0ZM18.0707 17.6109C17.7479 16.6725 17.5084 15.7966 17.1544 14.9625C16.0401 12.3558 14.9051 9.74909 13.7284 7.18409C13.6139 6.94427 13.1453 6.86084 12.8329 6.70443C12.7391 7.06937 12.4892 7.48646 12.5829 7.79927C12.8117 8.33919 13.0725 8.86493 13.3639 9.3737C14.322 11.7927 15.2591 14.2256 16.1755 16.6725C16.7066 18.0801 16.6858 18.101 15.1967 18.4242C14.4677 18.5806 13.7388 18.737 13.0099 18.8517C11.3542 19.1124 9.68806 19.3209 8.03234 19.6128C7.65747 19.6858 7.06391 19.9569 6.99102 20.2072C6.8973 20.8849 7.45961 21.0622 8.03234 20.9892C9.07367 20.8745 10.115 20.7494 11.1563 20.5721C12.8745 20.2906 14.6031 20.0403 16.2901 19.6128C16.9461 19.446 17.1544 19.6128 17.2377 20.1342C17.5397 22.2195 17.8417 24.2319 18.0812 26.286C18.1749 27.1201 18.0812 27.9856 18.0812 28.8301C18.0812 29.6747 18.758 29.925 19.185 29.5183C19.3891 29.2375 19.4919 28.8956 19.4765 28.5486C19.6691 25.3768 19.2809 22.1965 18.3311 19.1645C18.6226 19.0081 18.8413 18.8725 19.0704 18.7578C21.5175 17.5379 23.9646 16.3388 26.3597 15.098C26.8908 14.8269 27.6614 14.5454 27.1303 13.7321C26.5992 12.9188 26.089 13.7321 25.6516 13.9615C23.3104 15.532 20.7578 16.7607 18.0707 17.6109Z" fill="white"/>
</svg>
