<svg width="36" height="34" viewBox="0 0 36 34" fill="none" xmlns="http://www.w3.org/2000/svg">
<path d="M12.0344 2.04791C14.635 2.10269 17.2271 1.73292 19.709 0.953109C22.2168 0.108268 24.8783 -0.179923 27.5085 0.10854C28.62 0.247288 29.6705 0.694899 30.5411 1.40069C31.4116 2.10648 32.0673 3.04224 32.434 4.102C33.2689 6.61456 33.6566 9.25441 33.5795 11.9013C33.642 14.8208 34.3605 17.6151 34.7041 20.4825C35.0478 23.3499 35.6413 26.6031 33.6628 29.387C33.1338 30.1984 32.4406 30.8896 31.628 31.4159C30.8154 31.9421 29.9016 32.2917 28.9456 32.4421C26.6026 32.7966 24.2284 32.8904 21.8541 33.099C18.1678 33.4118 14.4815 33.8914 10.7744 33.9748C9.54668 34.0873 8.30977 33.908 7.16435 33.4514C6.01893 32.9948 4.99735 32.2739 4.18277 31.3473C3.08475 29.8939 2.23981 28.2653 1.68358 26.5301C0.309221 22.2736 -0.231749 17.7915 0.0903498 13.3297C0.119151 10.6918 0.63825 8.08236 1.62111 5.63474C1.92718 4.92991 2.40332 4.31226 3.00676 3.83725C3.6102 3.36225 4.32205 3.04478 5.07833 2.91336C7.36925 2.45458 9.6914 2.18348 11.9927 1.87067L12.0344 2.04791ZM19.0634 17.9696C18.8655 16.3639 18.6885 15.1023 18.5739 13.7989C18.3969 11.9847 18.3344 10.1496 18.1053 8.34572C17.9371 7.15397 17.6689 5.97854 17.3035 4.83189C17.2098 4.53993 16.71 4.36267 16.3871 4.13328C16.2271 4.44696 16.088 4.77089 15.9706 5.10296C15.9186 5.23851 15.9706 5.41578 16.0435 5.57218C16.3174 6.57501 16.5398 7.5912 16.71 8.61679C17.0224 11.2965 17.2306 13.997 17.5014 16.6976C17.5847 17.563 17.3139 17.9905 16.3663 17.8967C13.4086 17.7593 10.4833 17.219 7.67123 16.2909C7.36924 16.1763 6.94231 16.3639 6.57784 16.4056C6.78611 16.7914 6.89022 17.4483 7.20261 17.5317C8.17507 17.9793 9.2003 18.3016 10.2537 18.491C12.4093 18.8142 14.5856 18.981 16.7412 19.273C17.0119 19.273 17.4701 19.7318 17.4493 19.9403C17.3139 21.6295 17.1577 23.3186 16.8766 24.9765C16.6683 26.186 16.2205 27.3538 16.0019 28.5633C15.9394 28.9178 16.2622 29.3453 16.3976 29.7415C16.6996 29.5434 17.1994 29.387 17.2619 29.1264C17.7513 27.2495 18.1887 25.3518 18.5427 23.4437C18.7222 22.28 18.8335 21.1067 18.8759 19.9299C18.8759 19.3251 19.1779 19.0853 19.7715 19.0332C21.3543 18.8872 22.9475 18.7308 24.5199 18.5119C26.0923 18.2929 27.9147 18.0114 29.6016 17.6673C29.8932 17.6047 30.0806 17.073 30.3201 16.7602C30.0515 16.5838 29.761 16.4436 29.4558 16.3431C29.1318 16.3133 28.805 16.3344 28.4874 16.4056L19.0634 17.9696Z" fill="white"/>
</svg>
