<svg width="21" height="21" viewBox="0 0 21 21" fill="none" xmlns="http://www.w3.org/2000/svg">
<path d="M17.717 12.6488C16.0509 12.9408 14.3952 13.2432 12.7394 13.5143C11.5523 13.702 10.3548 13.827 9.17808 13.9939C7.66815 14.2128 6.15823 14.4214 4.65872 14.703C3.55491 14.9115 2.48234 15.266 1.37853 15.5162C0.732909 15.6726 0.784967 15.1513 0.816206 14.7759C0.89174 13.3772 1.05169 11.9845 1.29521 10.6052C1.67746 8.80036 2.18195 7.02372 2.80515 5.28751C3.12284 4.18465 3.68885 3.1694 4.45968 2.31984C5.23052 1.47028 6.18563 0.809029 7.25162 0.386892C8.26387 0.00137603 9.36241 -0.098451 10.4274 0.0982834C11.4925 0.295018 12.4831 0.780769 13.2913 1.50257C16.4153 4.07799 18.1543 7.58141 19.4248 11.3455C19.4763 11.5332 19.5389 11.7178 19.6122 11.8981C19.9558 12.5655 19.6643 12.7948 19.0082 12.7844C18.5813 12.7844 18.1648 12.7844 17.7378 12.7844L17.717 12.6488ZM17.9669 14.1294C17.1547 14.2233 16.3528 14.3067 15.551 14.4318C13.7287 14.7447 11.9064 15.12 10.084 15.3807C8.66783 15.5788 7.22037 15.5892 5.81458 15.8082C4.59788 16.0133 3.39469 16.2918 2.21158 16.6423C1.83502 16.7144 1.49669 16.919 1.2579 17.2194C1.01911 17.5197 0.895646 17.8957 0.909922 18.2793C0.969407 18.6564 1.10777 19.0166 1.31593 19.3365C1.52409 19.6563 1.79737 19.9285 2.11787 20.1353C3.04561 20.5225 4.05297 20.6799 5.05443 20.5941C6.82469 20.4585 8.58452 20.1353 10.3444 19.8434C12.427 19.4889 14.5618 19.1761 16.5923 18.6756C17.7492 18.3617 18.8567 17.8879 19.883 17.2679C20.7889 16.757 20.7264 15.7248 20.4973 14.8802C20.2682 14.0356 19.456 14.2129 18.8312 14.2129H17.9461L17.9669 14.1294Z" fill="white"/>
</svg>
