<svg width="23" height="22" viewBox="0 0 23 22" fill="none" xmlns="http://www.w3.org/2000/svg">
<path d="M2.43671 18.4678C1.81491 16.8819 1.27957 15.2633 0.833051 13.6193C0.314149 11.6442 0.0344638 9.61374 0 7.57173C0.0833064 4.44369 1.20795 1.62843 4.46731 0.387645C6.27786 -0.215976 8.2494 -0.111653 9.98635 0.679626C12.3999 1.67499 14.6204 3.08663 16.5467 4.85035L19.9727 7.9054C16.0365 9.10448 13.3186 11.805 10.1321 13.7444C8.29941 14.8705 6.36253 15.8297 4.49855 16.8724C3.77915 17.3612 3.09055 17.894 2.43671 18.4678ZM8.60139 20.7304C11.7254 19.0099 14.8494 17.2791 17.838 15.3814C19.1935 14.4182 20.4463 13.3176 21.5764 12.097C21.8458 11.8745 22.0258 11.562 22.0832 11.2171C22.1406 10.8722 22.0715 10.5181 21.8887 10.2202C21.4618 9.47988 20.8474 9.44857 20.1289 9.54241C17.9213 9.81351 16.2864 11.2107 14.5265 12.3577C12.7667 13.5046 10.8715 14.7454 9.02831 15.9132C7.18516 17.081 5.56069 17.9985 3.9258 19.1142C3.76207 19.2486 3.6358 19.4231 3.55923 19.6207C3.48266 19.8184 3.4584 20.0325 3.48878 20.2423C3.51916 20.4521 3.60317 20.6505 3.73265 20.8182C3.86213 20.9859 4.03268 21.1173 4.2278 21.1996C4.74939 21.4104 5.28984 21.571 5.84184 21.6792C6.79304 21.4487 7.72314 21.1383 8.62221 20.7512L8.60139 20.7304Z" fill="white"/>
</svg>
