<svg width="24" height="24" viewBox="0 0 24 24" fill="none" xmlns="http://www.w3.org/2000/svg">
<path d="M20.6757 3.05505C19.988 3.46816 19.3366 3.9391 18.7285 4.46271C17.1665 6.05801 15.063 6.45419 13.1053 7.22577C11.9031 7.69812 10.7823 8.35602 9.78342 9.17558C9.1963 9.68901 8.73986 10.3352 8.45192 11.0605C8.16398 11.7859 8.05283 12.5694 8.12771 13.3463C8.19862 14.2751 8.04657 15.2074 7.68427 16.0654C7.32196 16.9234 6.75991 17.6821 6.04505 18.2782C5.23388 19.101 4.47236 19.9715 3.76454 20.8849C2.869 18.8934 1.99428 17.1521 1.29659 15.3483C0.190134 12.5484 -0.217338 9.52047 0.109496 6.52719C0.390655 4.01433 1.09873 1.57446 3.85826 0.594336C4.82279 0.222203 5.84469 0.0210814 6.87813 0C9.12263 0.0156689 11.3647 0.151426 13.5947 0.406661C15.0525 0.54221 19.1866 1.78298 20.6757 3.05505ZM23.3936 6.51676C23.1094 5.82635 22.6585 5.21729 22.0815 4.74419C21.7625 4.57197 21.3949 4.5123 21.0379 4.57471C20.6809 4.63713 20.3553 4.81802 20.1134 5.08829C18.3851 6.63063 16.3147 7.73867 14.0737 8.32064C10.6477 9.17564 9.56476 10.8648 9.48146 14.3786C9.48261 15.1304 9.33505 15.8749 9.04729 16.5693C8.75954 17.2637 8.33728 17.8941 7.8049 18.4242C7.03432 19.175 6.35747 20.0299 5.60771 20.8015C5.46169 20.9253 5.34546 21.0805 5.26771 21.2555C5.18997 21.4305 5.1527 21.6209 5.15871 21.8124C5.16472 22.0038 5.21385 22.1915 5.30241 22.3613C5.39098 22.5311 5.51669 22.6787 5.67019 22.7931C6.14504 23.2259 6.72191 23.5309 7.34671 23.6793C9.25832 23.9931 11.2193 23.6241 12.8866 22.6366C15.8116 21.0166 18.3824 18.8254 20.4467 16.1929C22.4011 13.8467 23.5025 10.9059 23.5706 7.85142C23.5815 7.40002 23.5218 6.94966 23.3936 6.51676Z" fill="white"/>
</svg>
