<svg width="35" height="35" viewBox="0 0 35 35" fill="none" xmlns="http://www.w3.org/2000/svg">
<path d="M34.3506 10.8939C34.1111 12.8982 33.5076 14.8417 32.5699 16.6287C31.8985 17.7856 31.3003 18.9835 30.7788 20.2154C30.1404 22.2372 29.8448 24.3519 29.9041 26.4715C29.8208 28.5569 29.5292 30.7778 27.7069 32.2063C26.7557 32.8938 25.7011 33.4253 24.5829 33.7807C21.9379 34.74 19.3763 33.7807 16.8875 33.1238C14.3987 32.4669 11.7954 31.8205 9.29622 31.0385C6.40132 30.1209 3.32939 29.464 1.30921 26.8677C0.759715 26.1436 0.369799 25.3111 0.165173 24.425C-0.0394528 23.539 -0.0541216 22.6195 0.122113 21.7273C0.517818 18.9121 1.9965 16.5139 2.75667 13.7821C3.19864 12.026 3.54625 10.2474 3.798 8.454C4.20412 6.1184 4.39154 3.74107 5.73486 1.66613C6.23257 0.930818 6.99951 0.421386 7.8696 0.248102C10.2438 -0.377507 12.4723 0.31067 14.7424 0.873718C17.3457 1.53061 19.949 2.03109 22.6148 2.59414C25.4785 3.21975 28.3942 3.63682 30.9454 5.20084C31.6959 5.56944 32.349 6.10984 32.8519 6.77829C33.3549 7.44674 33.6935 8.22443 33.8403 9.04834C33.9679 9.67451 34.1384 10.2912 34.3506 10.8939ZM18.0017 18.1092C20.7126 18.9712 23.271 20.2556 25.5826 21.915C25.7805 22.0714 26.1345 22.0088 26.4157 22.0401C26.4919 21.6981 26.513 21.3461 26.4781 20.9974C26.4261 20.7889 26.1449 20.6117 25.9262 20.4657C23.6881 18.9061 21.2317 17.6868 18.6369 16.8476C18.506 16.7921 18.3919 16.7033 18.306 16.5898C18.2201 16.4764 18.1654 16.3423 18.1475 16.2011C18.1996 15.4921 18.4391 14.8039 18.5016 14.1158C18.7098 11.7176 18.8973 9.30899 19.0118 6.91082C19.0118 6.58759 18.6057 5.99327 18.3349 5.97242C17.6477 5.889 17.8247 6.53548 17.783 6.96298C17.5227 9.74694 17.2624 12.5309 16.9812 15.3044C16.9832 15.4388 16.9522 15.5715 16.8911 15.6912C16.8301 15.8108 16.7407 15.9136 16.6308 15.9907C16.521 16.0678 16.3939 16.1169 16.2608 16.1335C16.1277 16.1502 15.9925 16.1341 15.867 16.0864C15.0756 15.9196 14.2946 15.6798 13.5032 15.586C11.4205 15.3253 9.33788 15.1168 7.3177 14.9186C6.79703 14.9186 6.32843 15.1063 6.4638 15.6798C6.51587 15.9405 7.0053 16.2533 7.3177 16.295C9.80647 16.6078 12.2952 16.8163 14.784 17.1396C16.169 17.3168 16.3148 17.64 15.8878 18.9538C15.8218 19.2061 15.7383 19.4534 15.6379 19.6941C14.4612 22.0922 13.2533 24.4696 12.1182 26.8886C12.0434 27.097 12.0195 27.3202 12.0485 27.5397C12.0774 27.7592 12.1585 27.9686 12.2848 28.1503C12.8367 28.6195 13.0658 27.9521 13.2533 27.5976C14.8048 24.4904 16.3772 21.352 18.0017 18.1092Z" fill="white"/>
</svg>
