<svg width="36" height="37" viewBox="0 0 36 37" fill="#3003e1" xmlns="http://www.w3.org/2000/svg">
<path d="M15.3919 0.234009C20.7669 0.249219 26.0821 1.36334 31.0119 3.50804C32.1654 4.00604 33.1622 4.80839 33.8959 5.82945C34.6295 6.8505 35.0723 8.05191 35.1772 9.30535C35.5937 12.1206 34.8856 14.7169 34.1358 17.3549C33.5014 19.5148 33.2789 21.7752 33.4798 24.0176C33.8104 26.4837 33.6189 28.9919 32.9175 31.3789C32.3713 32.9993 31.207 34.3374 29.679 35.1013C28.035 35.8942 26.2789 36.4288 24.4723 36.6862C21.3483 37.3014 18.3389 36.8739 15.3086 36.5715C13.6055 36.365 11.9318 35.9627 10.3207 35.3724C8.18358 34.6405 6.09648 33.7698 4.07269 32.7657C1.10491 31.2747 -0.0405604 28.6888 0.00109273 25.4669C0.0945168 23.1291 0.486461 20.8129 1.16738 18.5748C1.67157 16.1451 1.82935 13.6562 1.63599 11.1822C1.53562 8.99085 2.16839 6.82867 3.43406 5.03818C4.69974 3.24769 6.52593 1.93129 8.62329 1.29756C9.77085 0.950309 10.9444 0.695762 12.1326 0.536395C13.2989 0.327859 14.5172 0.29657 15.3919 0.234009ZM20.0362 17.7719C21.6399 18.0534 23.1603 18.2411 24.6181 18.5956C26.076 18.9502 27.4609 19.5132 28.898 19.8782C29.2728 19.972 29.7518 19.68 30.1892 19.5653C29.9185 19.2525 29.6998 18.7937 29.3562 18.6478C28.2901 18.1819 27.19 17.7985 26.0655 17.5008C24.5064 17.0853 22.9195 16.7821 21.3171 16.5937C20.3695 16.4998 19.9946 16.2392 19.9009 15.3008C19.6093 12.3291 19.2553 9.35749 18.8596 6.4067C18.8596 6.07304 18.3389 5.80195 18.0682 5.49957C17.8807 5.8228 17.5162 6.14604 17.5371 6.44841C17.6204 7.67878 17.8391 8.89871 17.9744 10.1186C18.1931 12.0789 18.3806 14.0495 18.5888 16.1036C18.141 16.1036 17.7974 16.1766 17.4433 16.1766C15.1316 16.1766 12.8095 16.1766 10.4977 16.1766C9.36542 16.2558 8.2388 16.4021 7.12378 16.6146C6.89506 16.6321 6.68048 16.7321 6.51982 16.8961C6.35257 17.2269 6.22665 17.5771 6.14493 17.9388C6.42611 18.0547 6.72607 18.1183 7.03006 18.1264C7.94291 17.9085 8.86784 17.7449 9.8 17.6364C12.445 17.5634 15.0899 17.6364 17.7349 17.6364C18.4014 17.6364 18.7138 17.8971 18.6409 18.5748C18.5263 19.6175 18.3285 20.6602 18.2972 21.7029C18.1922 23.911 17.7169 26.0858 16.8914 28.1362C16.8446 28.5498 16.8836 28.9687 17.006 29.3665C17.3705 29.1371 17.9849 28.9912 18.0473 28.6784C18.689 26.779 19.2175 24.8431 19.6301 22.8811C19.8624 21.1871 19.998 19.4813 20.0362 17.7719Z" fill="#3003e1"/>
</svg>
