<svg width="20" height="21" viewBox="0 0 20 21" fill="none" xmlns="http://www.w3.org/2000/svg">
<path d="M19.9999 15.1916C13.6719 14.0649 7.2794 13.3371 0.860268 13.0124C2.08904 8.92508 3.58856 5.03586 6.69172 1.98081C7.36741 1.26423 8.20113 0.715865 9.12626 0.379494C10.0514 0.0431233 11.0423 -0.0719628 12.0197 0.0435378C12.9972 0.159038 13.9341 0.501898 14.7556 1.04466C15.5771 1.58742 16.2604 2.3151 16.7509 3.16948C18.1708 5.47359 19.07 8.0608 19.3855 10.7497C19.5833 12.2929 19.8125 13.8152 19.9999 15.1916ZM2.77633 14.3887C2.22442 14.4408 1.6725 14.5034 1.1206 14.5347C0.986514 14.5308 0.853183 14.5559 0.729594 14.6081C0.606005 14.6603 0.495047 14.7385 0.404226 14.8373C0.313405 14.9362 0.244833 15.0534 0.203146 15.1811C0.161459 15.3087 0.147621 15.4439 0.16258 15.5773C0.119334 16.0173 0.20455 16.4603 0.407881 16.8527C0.611211 17.2451 0.923921 17.5699 1.30805 17.7878C3.28657 18.9348 5.47336 19.1224 7.67057 19.4144C9.08677 19.6021 10.5134 19.7064 11.9192 19.9462C13.9844 20.4249 16.1197 20.5203 18.2192 20.2277C18.6951 20.1604 19.1311 19.9247 19.4482 19.5631C19.7653 19.2016 19.9426 18.7382 19.9478 18.257C20.0164 17.8791 19.9366 17.4892 19.7252 17.1687C19.5137 16.8482 19.1869 16.6217 18.8128 16.5366C17.634 16.1824 16.4293 15.9209 15.2098 15.7546C13.3042 15.5043 11.3777 15.4001 9.47206 15.1707C7.24362 14.9204 5.01517 14.5973 2.79714 14.3157L2.77633 14.3887Z" fill="white"/>
</svg>
