<svg width="23" height="23" viewBox="0 0 23 23" fill="none" xmlns="http://www.w3.org/2000/svg">
<path d="M19.2512 18.8006C16.9395 16.2669 13.8155 15.2555 11.2017 13.4621C9.43148 12.2421 7.81742 10.8032 6.05757 9.58325C4.8488 8.82302 3.60096 8.12694 2.31921 7.49788C3.63362 6.25103 5.02478 5.08793 6.48452 4.01536C8.44315 2.67307 10.5373 1.5407 12.7325 0.637019C15.7315 -0.499505 18.1578 -0.238801 20.3654 2.43046C21.0952 3.41786 21.5903 4.55906 21.8129 5.76706C22.7397 9.93779 21.2922 13.6914 19.8031 17.445C19.6677 17.8517 19.5011 18.2271 19.2512 18.8006ZM16.1793 21.8035C16.608 21.8755 17.048 21.7851 17.4138 21.5499C17.7796 21.3147 18.0448 20.9517 18.1578 20.5314C18.3244 20.1352 17.8767 19.2698 17.4601 18.9048C16.5417 18.1279 15.5393 17.4564 14.4715 16.9029C12.1637 15.681 9.98344 14.2314 7.96321 12.5757C6.23022 11.3065 4.3906 10.1901 2.46499 9.23914C2.29361 9.12001 2.10012 9.03646 1.89596 8.99343C1.6918 8.9504 1.4811 8.94881 1.27629 8.98866C1.07149 9.0285 0.876737 9.10901 0.703525 9.22546C0.530312 9.34191 0.382147 9.49195 0.267789 9.66668C0.0498378 10.0208 -0.0391556 10.4396 0.0158784 10.8519C0.0709124 11.2643 0.2666 11.6448 0.569783 11.9293C1.04404 12.5569 1.59305 13.1241 2.20466 13.6184C5.32865 15.7976 8.45264 17.9873 11.6808 20.0205C13.0988 20.7995 14.5708 21.4755 16.0856 22.0433L16.1793 21.8035Z" fill="white"/>
</svg>
