<svg width="24" height="25" viewBox="0 0 24 25" fill="none" xmlns="http://www.w3.org/2000/svg">
<path d="M20.0807 20.4424C18.8519 19.3997 17.5919 18.3571 16.4985 17.2101C15.4051 16.0632 15.4572 14.5617 15.4572 13.2062C15.4279 12.1223 15.0871 11.0698 14.4758 10.1748C13.8645 9.27979 13.0086 8.58015 12.0104 8.15965C10.5421 7.4402 8.88643 7.11695 7.34526 6.5122C6.71004 6.26976 6.10818 5.94744 5.55417 5.55295C4.63781 4.91691 3.76308 4.18703 2.64886 3.33203C4.42953 2.61258 6.09566 1.85143 7.8555 1.24667C10.7572 0.227769 13.8393 -0.173535 16.9046 0.0684351C20.0286 0.329105 22.1842 1.34048 23.0901 4.98986C23.6422 7.50749 23.6422 10.1151 23.0901 12.6327C22.5926 15.357 21.6122 17.9702 20.1953 20.3486C20.0807 20.4424 20.0807 20.5154 20.0807 20.4424ZM0.149677 10.4118C0.793032 12.9842 2.05906 15.3584 3.83597 17.3248C6.18826 20.0953 9.1851 22.2438 12.5623 23.5809C14.1972 24.1544 15.8633 24.6236 17.519 23.4766C18.7478 22.6633 18.9873 21.7875 17.998 20.6718C17.2691 19.8377 16.4256 19.1078 15.6759 18.284C14.8686 17.4612 14.3906 16.3706 14.3326 15.2186C14.2947 14.1076 14.1091 13.0065 13.7807 11.9446C13.1663 9.98435 11.4793 9.27531 9.69866 8.67056C8.14004 8.15369 6.61353 7.54438 5.12723 6.84586C4.40159 6.39439 3.70591 5.89635 3.04457 5.35484C2.68161 5.10038 2.23574 4.99329 1.797 5.05522C1.35825 5.11715 0.959315 5.34349 0.680749 5.6885C-0.193967 6.49137 0.108025 7.49232 0.00389191 8.535C-0.014832 9.16403 0.0340436 9.79325 0.149677 10.4118Z" fill="white"/>
</svg>
