<svg width="35" height="35" viewBox="0 0 35 35" fill="none" xmlns="http://www.w3.org/2000/svg">
<path d="M12.6113 34.3148C8.8938 34.0124 5.85311 32.9176 4.91592 29.435C4.55074 28.2533 4.36813 27.0226 4.37442 25.7856C4.53906 22.8498 3.78953 19.9353 2.22929 17.4442C1.1699 15.6443 0.436626 13.6711 0.063323 11.6156C-0.321969 9.65534 1.10464 6.40217 2.88532 5.51589C4.65905 4.64026 6.51465 3.94177 8.42519 3.43053C11.0493 2.75278 13.7464 2.38787 16.4018 1.79354C18.0991 1.41818 19.7444 0.750843 21.4522 0.406759C23.1746 -0.105643 25.0045 -0.134483 26.7422 0.323358C28.5437 0.928113 29.2309 2.40872 29.585 4.0353C30.1265 6.46475 30.3243 8.96714 30.8762 11.3966C31.2824 13.1587 32.0529 14.8374 32.5944 16.61C33.3541 18.5725 33.9191 20.6051 34.2814 22.6784C34.4317 23.981 34.153 25.297 33.4876 26.4264C32.8221 27.5557 31.8064 28.4364 30.5951 28.9345C28.1023 29.9392 25.5538 30.7991 22.9621 31.5099C21.119 32.1043 19.2654 32.7195 17.391 33.22C15.5166 33.7204 13.8922 34.0332 12.6113 34.3148ZM16.4747 18.1428C17.5993 20.5722 18.6719 22.9495 19.7861 25.306C20.1747 26.1334 20.6346 26.9254 21.1606 27.6729C21.3689 27.9544 21.8792 28.017 22.202 28.1838C22.202 27.7771 22.202 27.3705 22.202 26.9639C22.202 26.9639 22.1395 26.8491 22.1083 26.797C20.8101 24.0165 19.5049 21.236 18.1929 18.4556C17.9638 17.9759 17.995 17.7048 18.5886 17.5276C21.2373 16.7373 23.9889 16.3472 26.7526 16.3702C27.2316 16.3702 27.7939 16.464 27.7939 15.7237C27.7939 14.9834 27.2732 14.9105 26.7526 14.9626C25.2947 15.0982 23.8264 15.2024 22.379 15.3901C21.1629 15.544 19.9565 15.7668 18.7656 16.0574C17.9533 16.2659 17.4535 16.0574 17.2869 15.2858C17.0617 14.336 16.9085 13.3705 16.8287 12.3976C16.7246 10.7397 16.735 9.07146 16.6725 7.40317C16.6725 6.79841 16.7767 5.9851 15.9123 6.00595C15.6728 6.00595 15.2876 6.90267 15.2667 7.39273C15.2318 8.78487 15.284 10.1778 15.4229 11.5635C15.5583 12.9815 15.8395 14.3787 16.0894 15.7342C16.1727 16.2138 16.2976 16.6205 15.6833 16.8499C14.5757 17.2122 13.4908 17.6404 12.4343 18.1323C10.8723 18.9456 9.36238 19.8632 7.8837 20.8225C7.67543 20.9476 7.76916 21.5211 7.7171 21.8651C8.02949 21.8651 8.44603 22.0007 8.64388 21.8651C11.0309 20.1998 13.677 18.9419 16.4747 18.1428Z" fill="white"/>
</svg>
