<svg width="36" height="37" viewBox="0 0 36 37" fill="none" xmlns="http://www.w3.org/2000/svg">
<path d="M33.8101 12.1683C33.5755 14.9841 33.8975 17.8186 34.7578 20.5098C35.4391 22.8013 35.6063 25.2154 35.2472 27.5791C35.0626 28.6858 34.6217 29.7337 33.9599 30.6391C33.298 31.5444 32.4336 32.2819 31.4359 32.7925C28.7797 34.223 25.9373 35.2758 22.9907 35.9206C19.7086 36.7697 16.3178 37.1212 12.9315 36.9633C9.92206 36.7339 6.9022 36.2855 4.43425 34.2523C3.23864 33.2251 2.4211 31.8265 2.11209 30.2797C1.62975 28.114 1.58372 25.8737 1.97672 23.6899C2.09696 22.1268 1.95262 20.5546 1.54978 19.0396C1.21656 17.2566 0.508443 15.5362 0.268937 13.7427C-0.210074 10.6147 -0.314193 7.35111 2.2683 4.97379C3.52857 3.94274 4.97933 3.17036 6.53774 2.70076C8.81105 1.8504 11.1567 1.20826 13.5459 0.782227C16.9204 0.151462 20.3764 0.0880407 23.7717 0.594552C25.6114 0.768627 27.3897 1.34909 28.9784 2.29413C31.061 3.77473 32.9042 5.42215 33.2895 8.20611C33.529 9.718 33.6956 11.2299 33.8101 12.1683ZM18.7734 16.2035C18.3505 16.2349 17.9258 16.2349 17.5029 16.2035C17.2947 16.2035 16.9719 15.9324 16.9719 15.7968C16.9719 14.2954 16.9719 12.7835 17.1385 11.2925C17.3051 9.80144 17.6279 8.16441 17.8153 6.57953C17.8153 6.26673 17.555 5.91221 17.4092 5.53685C17.0968 5.81837 16.6282 6.03734 16.5137 6.39186C16.256 7.15823 16.0917 7.95293 16.0242 8.75873C15.8576 10.6773 15.7431 12.5854 15.639 14.5039C15.5348 16.4224 15.3057 16.8082 13.6708 16.5893C13.5432 16.5688 13.4132 16.5688 13.2855 16.5893C10.8905 17.2462 8.48503 17.8926 6.10038 18.5704C5.85743 18.6363 5.64656 18.7882 5.50682 18.9979C5.42837 19.2597 5.42837 19.5389 5.50682 19.8007C5.89341 19.8949 6.29693 19.8949 6.68353 19.8007C9.23263 18.8497 11.8919 18.2261 14.5976 17.9447C15.1391 17.9447 15.3682 18.0282 15.4203 18.5912C15.5973 20.5306 15.691 22.4908 16.0242 24.4094C16.3437 25.9258 16.7824 27.4145 17.3363 28.8616C17.4196 29.091 17.8986 29.1953 18.1902 29.3517C18.3434 29.0618 18.4689 28.7581 18.5651 28.4446C18.5651 28.2881 18.4714 28.0796 18.3985 27.8919C17.076 24.8994 17.0552 21.6358 16.7844 18.5078C16.7323 17.8822 17.0031 17.5694 17.7008 17.5798C18.6172 17.5798 19.5335 17.4443 20.4395 17.4651C23.1053 17.5485 25.7919 17.3817 28.3848 18.2263C28.5359 18.234 28.6866 18.2037 28.823 18.1381C28.9594 18.0725 29.0773 17.9738 29.1658 17.8509C29.2179 17.5798 29.0096 17.0376 28.8014 16.9855C27.6345 16.6035 26.4301 16.3483 25.2088 16.2243C23.074 16.0679 20.9393 16.2035 18.7734 16.2035Z" fill="white"/>
</svg>
