<svg width="21" height="20" viewBox="0 0 21 20" fill="none" xmlns="http://www.w3.org/2000/svg">
<path d="M4.33087 13.9844C5.81042 16.1406 7.82513 17.2188 10.375 17.2188C12.9248 17.2188 14.9396 16.1406 16.4191 13.9844C16.3876 13.1094 15.6793 12.375 14.2942 11.7812C12.9091 11.1875 11.6027 10.8906 10.375 10.8906C9.14728 10.8906 7.84087 11.1875 6.45576 11.7812C5.07065 12.3438 4.36235 13.0781 4.33087 13.9844ZM12.4999 3.90625C11.9018 3.3125 11.1935 3.01562 10.375 3.01562C9.55651 3.01562 8.84822 3.3125 8.2501 3.90625C7.65199 4.5 7.35293 5.20312 7.35293 6.01562C7.35293 6.82812 7.65199 7.53125 8.2501 8.125C8.84822 8.71875 9.55651 9.01562 10.375 9.01562C11.1935 9.01562 11.9018 8.71875 12.4999 8.125C13.098 7.53125 13.397 6.82812 13.397 6.01562C13.397 5.20312 13.098 4.5 12.4999 3.90625ZM3.24482 2.96875C5.22804 1 7.60477 0.015625 10.375 0.015625C13.1452 0.015625 15.5062 1 17.4579 2.96875C19.4412 4.90625 20.4328 7.25 20.4328 10C20.4328 12.75 19.4412 15.1094 17.4579 17.0781C15.5062 19.0156 13.1452 19.9844 10.375 19.9844C7.60477 19.9844 5.22804 19.0156 3.24482 17.0781C1.29307 15.1094 0.3172 12.75 0.3172 10C0.3172 7.25 1.29307 4.90625 3.24482 2.96875Z" fill="white"/>
</svg>
