<svg width="19" height="18" viewBox="0 0 19 18" fill="none" xmlns="http://www.w3.org/2000/svg">
<path d="M14.6775 14.0156V9.98438H12.6471V14.0156H14.6775ZM10.6166 14.0156V3.98438H8.6334V14.0156H10.6166ZM6.60295 14.0156V6.98438H4.57251V14.0156H6.60295ZM16.6607 0C17.1959 0 17.6681 0.203125 18.0773 0.609375C18.4866 1.01562 18.6912 1.48438 18.6912 2.01562V15.9844C18.6912 16.5156 18.4866 16.9844 18.0773 17.3906C17.6681 17.7969 17.1959 18 16.6607 18H2.58928C2.05413 18 1.58193 17.7969 1.17269 17.3906C0.763456 16.9844 0.558838 16.5156 0.558838 15.9844V2.01562C0.558838 1.48438 0.763456 1.01562 1.17269 0.609375C1.58193 0.203125 2.05413 0 2.58928 0H16.6607Z" fill="white"/>
</svg>
