<svg width="34" height="42" viewBox="0 0 34 42" fill="none" xmlns="http://www.w3.org/2000/svg">
<path d="M20.5826 35.8031H17.9783C17.8627 35.8108 17.7468 35.7958 17.6376 35.759C17.5284 35.7222 17.4284 35.6645 17.3438 35.5893C17.2592 35.5142 17.1918 35.4233 17.1458 35.3223C17.0998 35.2213 17.0762 35.1123 17.0764 35.0023C17.0764 34.7899 17.1653 34.5862 17.3233 34.436C17.4814 34.2859 17.6957 34.2015 17.9193 34.2015H23.229C23.3439 34.1949 23.4589 34.2108 23.5671 34.2481C23.6752 34.2854 23.7742 34.3433 23.8579 34.4183C23.9416 34.4934 24.0083 34.5839 24.0537 34.6843C24.0992 34.7847 24.1226 34.893 24.1224 35.0023C24.1229 35.1138 24.0988 35.2242 24.0518 35.3264C24.0048 35.4286 23.9358 35.5203 23.8493 35.5956C23.7629 35.671 23.6608 35.7284 23.5496 35.7642C23.4384 35.7999 23.3206 35.8131 23.2037 35.8031H20.5826ZM23.1869 38.8222C23.7768 38.8222 24.1477 38.5099 24.1561 38.0214C24.157 37.9076 24.1323 37.795 24.0838 37.691C24.0352 37.587 23.9639 37.494 23.8746 37.4182C23.7853 37.3425 23.6801 37.2856 23.5658 37.2516C23.4516 37.2175 23.331 37.2069 23.2121 37.2206C21.4759 37.2206 19.7397 37.2206 18.0035 37.2206C17.886 37.2094 17.7673 37.2217 17.6551 37.2569C17.5429 37.2921 17.4397 37.3493 17.3523 37.4248C17.2649 37.5003 17.1952 37.5925 17.1476 37.6952C17.1001 37.798 17.0759 37.9091 17.0764 38.0214C17.0764 38.5179 17.4051 38.8222 18.0288 38.8222H23.1869ZM20.6163 30.5978C20.2539 30.2214 20.0516 30.5578 19.824 30.766C19.5965 30.9742 19.3436 31.1744 19.6892 31.4867C20.0347 31.799 20.532 32.2315 20.8775 32.6159C20.9136 32.6722 20.9644 32.7188 21.0249 32.7511C21.0854 32.7834 21.1537 32.8004 21.2231 32.8004C21.2925 32.8004 21.3608 32.7834 21.4213 32.7511C21.4818 32.7188 21.5326 32.6722 21.5687 32.6159C22.3525 31.8631 23.1363 31.1103 23.937 30.3736C24.3415 30.0052 24.0128 29.821 23.7853 29.5727C23.5577 29.3245 23.3301 29.1243 22.9846 29.4766C22.4368 30.0532 21.8468 30.5898 21.2147 31.2064L20.6163 30.5978ZM16.9753 0.166626C15.1709 0.172959 13.4089 0.686855 11.9114 1.6435C10.414 2.60015 9.24822 3.95672 8.56115 5.5421C7.87409 7.12748 7.69648 8.87066 8.05075 10.5518C8.40502 12.233 9.27531 13.7768 10.5518 14.9886C11.8283 16.2004 13.4539 17.0259 15.2236 17.361C16.9932 17.696 18.8276 17.5257 20.4955 16.8714C22.1634 16.2171 23.59 15.1082 24.5955 13.6845C25.6009 12.2608 26.1401 10.5861 26.1451 8.87153C26.1407 7.73154 25.9 6.60356 25.4368 5.55195C24.9736 4.50034 24.2969 3.54573 23.4454 2.7426C22.5939 1.93948 21.5843 1.30357 20.4741 0.871205C19.364 0.438838 18.1751 0.218475 16.9753 0.222689V0.166626ZM10.2834 31.4547C10.5253 31.7329 10.693 32.0626 10.7722 32.4157C10.8733 32.8641 10.9745 33.3126 11.0672 33.761C11.0799 33.8347 11.1086 33.905 11.1516 33.9675C11.1945 34.03 11.2506 34.0833 11.3165 34.124C11.3823 34.1647 11.4564 34.1919 11.5339 34.2038C11.6114 34.2158 11.6907 34.2123 11.7667 34.1935C11.868 34.1716 11.9603 34.122 12.0322 34.0509C12.1041 33.9797 12.1524 33.8901 12.1713 33.7931C12.2556 33.4888 12.3314 33.1925 12.4073 32.8881C12.4213 32.8132 12.4629 32.7455 12.5247 32.697C12.5864 32.6486 12.6643 32.6227 12.7444 32.6239C12.8242 32.6249 12.9011 32.6528 12.9613 32.7027C13.0215 32.7526 13.0611 32.8211 13.0731 32.8961L13.3006 33.7851C13.3264 33.9006 13.3916 34.0048 13.4861 34.0815C13.5806 34.1583 13.6991 34.2032 13.8232 34.2095C13.9534 34.2178 14.0823 34.181 14.1862 34.1059C14.29 34.0308 14.3617 33.9225 14.3879 33.8011C14.489 33.4087 14.5733 33.0002 14.6576 32.6078C14.7299 32.1872 14.9125 31.7906 15.1885 31.4547C15.3425 31.273 15.4494 31.0595 15.5006 30.8314C15.5519 30.6033 15.546 30.3669 15.4835 30.1413C15.4324 29.9252 15.3347 29.7215 15.1965 29.543C15.0583 29.3646 14.8827 29.2154 14.6807 29.1047C14.4788 28.9941 14.2548 28.9245 14.0231 28.9003C13.7913 28.8761 13.5568 28.8978 13.3343 28.9641C12.9359 29.0959 12.5023 29.0959 12.1038 28.9641C11.8334 28.8733 11.5421 28.8539 11.261 28.9081C10.8858 28.9803 10.5464 29.1689 10.2962 29.4444C10.046 29.7198 9.89921 30.0663 9.87882 30.4296C9.88278 30.8058 10.026 31.1687 10.2834 31.4547ZM33.4608 30.2454C33.0899 32.2234 31.6319 33.2165 29.6681 33.6249C28.9517 33.777 28.2185 33.8491 27.4346 33.9692C27.4346 35.5709 27.4346 37.1725 27.4346 38.7742C27.4306 39.4685 27.1781 40.1409 26.7186 40.6809C26.2591 41.2208 25.62 41.5962 24.9062 41.7452C24.555 41.8199 24.1957 41.8548 23.8358 41.8493H10.1317C9.33209 41.8989 8.54008 41.6763 7.89759 41.2214C7.25509 40.7665 6.80413 40.109 6.62554 39.3668C6.56486 39.0445 6.54225 38.7168 6.55813 38.3898C6.55813 36.9323 6.55813 35.4668 6.55813 33.9933C5.71531 33.8491 4.87248 33.753 4.08866 33.5608C1.69507 33.0003 0.523561 31.5508 0.354998 29.1963C0.188107 26.6689 0.989823 24.1694 2.61194 22.16C4.23405 20.1506 6.56689 18.7671 9.17927 18.2652C9.54168 18.2011 9.91253 18.1531 10.2918 18.097H11.0503C12.7053 19.451 14.8167 20.1957 17.0006 20.1957C19.1845 20.1957 21.2959 19.451 22.9509 18.097H23.8611C24.3668 18.2011 25.0242 18.2892 25.6563 18.4573C27.7735 19.0105 29.6657 20.158 31.0852 21.7498C32.5048 23.3415 33.3856 25.3033 33.6125 27.3785C33.7054 28.3388 33.6543 29.3068 33.4608 30.2534V30.2454ZM25.7659 38.5259V29.4606C25.7967 29.2265 25.7704 28.9887 25.689 28.7658C25.6076 28.5428 25.4733 28.3407 25.2964 28.175C25.1196 28.0093 24.905 27.8845 24.6693 27.8102C24.4335 27.736 24.183 27.7143 23.937 27.7469H9.95467C9.72049 27.7246 9.48401 27.7518 9.26225 27.8267C9.04049 27.9016 8.83896 28.0223 8.67214 28.18C8.50531 28.3378 8.37734 28.5287 8.29744 28.739C8.21754 28.9494 8.1877 29.1739 8.21004 29.3966V38.574C8.18498 38.7934 8.21072 39.0153 8.28548 39.2243C8.36023 39.4333 8.48219 39.6242 8.64279 39.7836C8.80339 39.9431 8.99875 40.0673 9.21518 40.1474C9.43161 40.2276 9.66386 40.2618 9.89567 40.2477H23.9791C24.2222 40.2751 24.4687 40.2496 24.6998 40.1729C24.9309 40.0963 25.1406 39.9705 25.3128 39.8053C25.4851 39.64 25.6155 39.4396 25.694 39.2193C25.7725 38.999 25.7971 38.7646 25.7659 38.5339V38.5259Z" fill="#FF7A00"/>
</svg>
