<svg width="19" height="21" viewBox="0 0 19 21" fill="none" xmlns="http://www.w3.org/2000/svg">
<path d="M4.82251 9.98438H9.87501V15H4.82251V9.98438ZM16.9107 18.9844V8.01562H2.83928V18.9844H16.9107ZM16.9107 3C17.4459 3 17.9181 3.20312 18.3273 3.60938C18.7366 4.01562 18.9412 4.48438 18.9412 5.01562V18.9844C18.9412 19.5156 18.7366 19.9844 18.3273 20.3906C17.9181 20.7969 17.4459 21 16.9107 21H2.83928C2.27265 21 1.78471 20.7969 1.37547 20.3906C0.997717 19.9844 0.808838 19.5156 0.808838 18.9844V5.01562C0.808838 4.48438 0.997717 4.01562 1.37547 3.60938C1.78471 3.20312 2.27265 3 2.83928 3H3.8309V0.984375H5.86134V3H13.8887V0.984375H15.9191V3H16.9107Z" fill="white"/>
</svg>
