<svg width="98" height="98" viewBox="0 0 98 98" fill="none" xmlns="http://www.w3.org/2000/svg">
<g clip-path="url(#clip0_612_5243)">
<path d="M40.8816 51.0662C40.8816 54.4378 40.8816 57.5856 40.8816 60.7185C40.8669 61.0327 40.746 61.3325 40.5387 61.5689C36.2032 66.5298 32.9846 72.3656 31.101 78.6805C29.1031 84.6479 27.5824 90.8839 25.8529 96.9855C25.7634 97.3287 25.674 97.6569 25.5994 97.9851H11.2565C10.6303 94.4195 9.89973 90.8839 9.40772 87.3034C7.5944 74.1055 7.81061 60.7077 10.0488 47.5753C10.1448 47.2188 10.1338 46.842 10.0171 46.4918C9.90044 46.1416 9.68332 45.8336 9.39281 45.606C6.46537 42.971 4.12332 39.7505 2.51815 36.1527C0.912976 32.5549 0.0804396 28.6601 0.0743865 24.7201C0.0743865 22.3629 0.163843 20.0058 0.0743865 17.6636C-0.026608 15.6051 0.389963 13.5542 1.28598 11.6986C2.182 9.84287 3.52884 8.24169 5.20324 7.04155C9.40371 3.78293 14.3664 1.65186 19.6207 0.850363C28.0111 -0.843313 36.7076 -0.156053 44.7283 2.83453C45.9508 3.29701 47.084 3.96835 48.3065 4.44574C48.7868 4.62801 49.3172 4.62801 49.7975 4.44574C57.0373 0.859577 65.1337 -0.63359 73.1755 0.134278C78.4273 0.431184 83.5694 1.7593 88.3087 4.04293C91.2325 5.41055 93.7881 7.4563 95.7634 10.0104C97.255 11.9489 98.0436 14.3372 97.9998 16.7834C97.9104 20.4086 97.8507 38.281 97.7315 41.9062C97.7315 42.2344 97.2991 42.8312 97.0605 42.8312C94.5557 42.9058 92.051 42.8312 89.412 42.8312C89.5014 42.0107 89.6356 41.3393 89.6505 40.5486C89.6505 37.3561 89.6505 19.9163 89.7698 16.679C89.7418 16.1328 89.5937 15.5995 89.336 15.1173C89.0782 14.6351 88.7173 14.2157 88.2789 13.8892C86.4911 12.2328 84.3645 10.9855 82.0467 10.2341C73.2841 7.01379 63.6214 7.2754 55.0456 10.9651C50.541 13.1563 46.1699 15.6122 41.9551 18.32C37.2396 21.3137 31.9635 23.3137 26.4492 24.1979C23.1543 24.6455 19.7996 24.5858 16.3704 24.7499V16.3507C20.4706 16.1717 24.6452 16.6193 28.7155 15.3661C32.6423 14.1501 36.3808 12.3927 39.8231 10.1446V9.77165C37.3332 9.3241 34.8731 8.68261 32.3683 8.45884C26.6136 7.75621 20.7745 8.48909 15.3715 10.5922C13.3686 11.541 11.4614 12.68 9.67609 13.9936C9.14523 14.3813 8.72725 14.9037 8.46519 15.5068C8.20313 16.1099 8.10646 16.772 8.18514 17.4249C8.31933 20.7816 8.08077 24.1531 8.46842 27.4651C8.77775 30.1442 9.65291 32.7268 11.0358 35.0417C12.4188 37.3565 14.2778 39.3507 16.4897 40.8918C17.417 41.4655 18.1214 42.3379 18.4873 43.3656C18.8531 44.3932 18.8584 45.5148 18.5025 46.5459C16.5175 56.6362 15.8957 66.9476 16.6537 77.2035C16.9221 80.9779 17.429 84.6628 17.8763 88.482C18.0306 88.9454 18.2625 89.3793 18.5621 89.765C18.8736 89.3799 19.1296 88.9531 19.3225 88.4969C20.8802 82.1673 22.9649 75.9793 25.5547 69.9979C27.7681 64.6529 30.9189 59.7471 34.8582 55.512C36.6006 53.7003 38.6373 52.1971 40.8816 51.0662Z" fill="#0970B8"/>
<path d="M75.8444 51.0065C79.2736 54.6367 82.7177 58.2619 86.1767 61.8821C86.1767 70.1271 86.1767 78.3771 86.1767 86.632V89.929H58.0425V51.0065H75.8444ZM78.0361 43.0101H52.5409C50.7965 43.0101 50.0659 43.7859 50.0659 45.606V95.3444C50.0659 97.075 50.8412 97.8955 52.4663 97.8955H91.723C93.3779 97.8955 94.1383 97.0899 94.1383 95.3594C94.1383 83.5638 94.1383 71.7582 94.1383 59.9427C94.1486 59.54 94.0773 59.1395 93.9286 58.7651C93.78 58.3908 93.5572 58.0504 93.2736 57.7646L80.1234 43.95C79.8626 43.6506 79.5389 43.4125 79.1755 43.2526C78.8122 43.0927 78.418 43.015 78.0212 43.0251L78.0361 43.0101Z" fill="#0970B8"/>
<path d="M72.0874 71.6986H64.8861C64.2898 71.6986 63.7828 70.2068 63.7083 68.4315C63.4845 66.8847 63.7892 65.3077 64.573 63.9559C64.6282 63.9092 64.6925 63.8744 64.7618 63.8539C64.8311 63.8334 64.9039 63.8275 64.9756 63.8365H79.244C80.0043 63.8365 80.5262 65.4627 80.5262 67.775C80.5262 70.0874 79.9894 71.6688 79.2141 71.6688L72.0874 71.6986Z" fill="#0970B8"/>
<path d="M72.0874 84.6032H64.8861C64.2897 84.6032 63.7828 83.1113 63.7082 81.3211C63.4796 79.7743 63.7846 78.1956 64.573 76.8455C64.6282 76.7988 64.6924 76.7641 64.7617 76.7436C64.831 76.723 64.9038 76.7171 64.9755 76.7262H79.2439C80.0043 76.7262 80.5261 78.3672 80.5261 80.6796C80.5261 82.992 79.9894 84.5584 79.2141 84.5584L72.0874 84.6032Z" fill="#0970B8"/>
<path d="M55.0903 21.3634L67.8081 34.0889L80.5259 21.3634H55.0903Z" fill="#EF791A"/>
</g>
<defs>
<clipPath id="clip0_612_5243">
<rect width="98" height="98" fill="white"/>
</clipPath>
</defs>
</svg>
